<?xml version="1.0" encoding="utf-8"?>
<!-- Generator: Adobe Illustrator 26.3.1, SVG Export Plug-In . SVG Version: 6.00 Build 0)  -->
<svg version="1.1" id="Layer_1" xmlns="http://www.w3.org/2000/svg" xmlns:xlink="http://www.w3.org/1999/xlink" x="0px" y="0px"
	 viewBox="0 0 19 19" style="enable-background:new 0 0 19 19;" xml:space="preserve">
<style type="text/css">
	.st0{fill:#989899;}
</style>
<path class="st0" d="M17.3,0H1.7C0.8,0,0,0.8,0,1.7v15.6C0,18.2,0.8,19,1.7,19h15.6c0.9,0,1.7-0.8,1.7-1.7V1.7C19,0.8,18.2,0,17.3,0
	z M5.9,16.4c0,0.3-0.2,0.5-0.5,0.5H3.2c-0.3,0-0.5-0.2-0.5-0.5V7.5C2.7,7.2,3,7,3.2,7h2.1c0.3,0,0.5,0.2,0.5,0.5V16.4z M4.3,6.1
	c-1.1,0-2-0.9-2-2s0.9-2,2-2s2,0.9,2,2S5.4,6.1,4.3,6.1z M17,16.4c0,0.3-0.2,0.5-0.5,0.5h-2.3c-0.3,0-0.5-0.2-0.5-0.5v-4.2
	c0-0.6,0.2-2.7-1.6-2.7c-1.4,0-1.7,1.4-1.8,2.1v4.8c0,0.3-0.2,0.5-0.5,0.5H7.7c-0.3,0-0.5-0.2-0.5-0.5v-9C7.3,7.2,7.5,7,7.7,7H10
	c0.3,0,0.5,0.2,0.5,0.5v0.8c0.5-0.8,1.3-1.4,2.9-1.4c3.7,0,3.6,3.4,3.6,5.3L17,16.4L17,16.4z"/>
</svg>
