<?xml version="1.0" encoding="utf-8"?>
<!-- Generator: Adobe Illustrator 26.3.1, SVG Export Plug-In . SVG Version: 6.00 Build 0)  -->
<svg version="1.1" xmlns="http://www.w3.org/2000/svg" xmlns:xlink="http://www.w3.org/1999/xlink" x="0px" y="0px"
	 viewBox="0 0 1108 675" style="enable-background:new 0 0 1108 675;" xml:space="preserve">
<style type="text/css">
	.st0{fill:#A8AAAD;}
	.st1{display:none;}
</style>
<g id="Layer_1">
	<g>
		<path class="st0" d="M100.6,295c0.5,0.3,1.1,0.4,1.7,0.1c5.9-3.3,9.3-8.7,8.8-17.7l0,0c-3.8,1.6-7.6,2.9-11.4,4
			C97.8,288.8,98.2,293.2,100.6,295z"/>
		<path class="st0" d="M1105.5,152.5c-9.1-10.1-10.9-23.3-4-40c-2.2-9.3-5.6-18.9-12-29c11.4-17.4,17.4-30.7,10-34
			c-12.5-5.3-23.5-0.5-34,8c-5.6-4.5-11.8-6.1-19-3c12-14,12.6-45.8-3-53c-5.7-2.5-11.6-1.6-17.5,0c-10.9,13.7-50.4,49.3-82.5,48
			c-26.8,2.5-52.6-2.1-78-10c-37.9-6.8-72.2,7.5-104,37c-1.3,1-2.7,1.9-4,2.9l2-1.4c0.5-0.4,1.3-0.3,1.8,0.1
			c0.9,0.9,1.2,2.8,0.8,5.9c0.9,1.8-2.1,4-6.5,6.2c-0.5,0.3-1.1-0.2-0.9-0.8c0.9-2.6,1.3-5,0-6.9c-0.3-0.4-0.2-0.9,0.2-1.2l2.7-1.9
			c-32.6,23.2-66.5,44.4-101.4,63.7c0.4,0.1,0.7,0.4,0.8,0.8c0.3,2.4,0,4.6-1.3,6.8c-0.6,1-2.1,1-2.6-0.2c-0.7-1.4-1.5-2.5-2.7-3.4
			c-0.2-0.2-0.3-0.5-0.3-0.7c-24.5,13.3-49.6,25.7-75.1,37.2l4.7-2.1c0.8-0.4,1.7,0.2,1.8,1c1.2,11.9-6.9,15.5-10.4,4.1
			c-0.2-0.6,0.1-1.3,0.7-1.6c-11.6,5.2-23.3,10.2-35.1,15c0.9-0.3,1.9,0.4,1.9,1.4c0,11.6-12.6,17.3-19.9,7.8
			c-0.5-0.7-0.3-1.8,0.5-2.1c-11.4,4.5-22.9,8.8-34.4,12.9c0.1,0,0.1,0,0.2-0.1c0.2-0.1,0.4-0.1,0.6-0.1c23.6,1.7,14.2,12.3-7,8.8
			c-0.5-0.1-1,0.3-0.9,0.8c0.7,18.7-6.8,15.9-6.5-6.4c0-0.3,0.3-0.6,0.6-0.6c0.1,0,0.1,0,0.2,0l-49.3,5.1
			c-7.3-7.8-16.2-15-26.7-21.5c-1.2,8.7-7.3,13.2-16.7,14.6c-1.8,0.3-3.1-1.6-2.4-3.2c3.8-8.4,5.8-15.4,4.2-19.6
			c0.1,0,0.2,0.1,0.3,0.1c-4.5-2.2-9.3-4.3-14.4-6.3c0,14.6-2.4,24.2-10.3,22.9c-11.1-1.1-9.4-12-1.7-27.3c-1.7-0.6-3.5-1.2-5.3-1.7
			c-11.6-2.6-23-4.2-34.1-4.7c0.4,0.1,0.7,0.5,0.8,0.9c3.3,14.6-0.9,16.4-10.2,9.8c-1-0.8-2.5-0.4-3.1,0.7
			c-7.8,13.3-15.8,9.2-23.8-7.9c-0.2-0.4,0-1,0.4-1.2c-9.5,1.6-18.8,4.1-27.9,7.5c-3.3,1.5-7.5,3.7-12.3,6.4
			c0.2,5.1,6.8,7.9,17.7,9.2c0.6,0.1,1.1,0.3,1.6,0.6c6.1,4.1,1.2,11.9-8.9,21.5c-0.9,0.8-2.1,1.1-3.3,0.8
			c-10.5-2.8-18-10.5-22.6-22.8c-5,3.1-10.4,6.5-16,10.1c-2.3,4.2-2.5,8.3-0.8,12.3c0.2,0.4-0.2,0.8-0.6,0.6
			c-3.6-1.7-8.7-0.8-14.7,1.8c0,0-0.1,0-0.1,0.1c-2.7,2.1-3.4,5.8-2.8,10.4c0.1,0.4-0.4,0.7-0.8,0.5c-2.7-1.9-5.2-4.6-7.3-8
			c0,0,0.1-0.1,0.2-0.1c-9.7,6.5-19.9,13.2-30.2,20.1c0,0,0,0,0,0l0.1,0c1.2,26.2-4.1,29.8-16.1,10.9c0,0,0,0,0,0
			c-0.4,0.2-0.7,0.5-1.1,0.7c-3.7,2.4-7.5,4.6-11.2,6.6c0,0,0.1,0,0.1,0c0.9,7.5-0.9,14.8-5.3,21.8c0,0.1-0.1,0.2-0.1,0.3
			c-10.4,24.2-12.5,22.3-27.7,4.2c-0.2-0.2-0.3-0.4-0.4-0.7c-1.8-4.7-1.2-9.3,1.9-13.7c-0.1-0.1,0-0.3,0.2-0.5
			c-8.2,1.5-16.3,1.9-24.4,1c-5-1.6-9.5-4.1-13.3-7.7l0,0c-1.6,2.3-2.1,6.2-1.6,11.7c0.1,1.3,1.4,2.3,2.7,2.1
			c19-2.9,18.4,10.8-0.2,9.4c-0.1,0-0.3,0-0.4,0c-4.9,0.7-9-1.2-11.6-7.6c-0.1-0.3-0.2-0.6-0.2-0.9c-0.4-15.7,1-24.1,4.6-23.8
			c-1.7-3.3-3.1-7.2-4.1-11.7c-0.4-3.2-0.6-6.4-0.8-9.5c-2.4,0.7-5.2,0.8-8.6,0.1c-0.3-0.1-0.7-0.2-0.9-0.4c-6.5-3.8-7.6-7.1-2-9.6
			c0.3-0.1,0.5-0.2,0.8-0.2c3.7-0.6,7.2-0.5,10.5,0.3c0-1.4,0.1-2.8,0.1-4.2H30.6c-0.1,0-0.2,0-0.2,0c-9-0.6-9.9-5.2-3.4-13.4
			c0.3-0.4,0.7-0.7,1.2-0.9c5.2-2.3,10.4-3,15.5-2.2v0c5.4-15.3,7.4-28.4,0-35.5c-3.4-1.9-8.1-1.9-14.2,0c-15.1,5.1-23.1,23.1-28,47
			C-0.3,241,0,253.3,1.5,265c6,34.3,25.6,57.1,61,66.5c9,1.9,20.5,1.9,34.3,0c33.6-6.5,68.3-23.1,103.7-47
			c30.5-26.2,69.5-40.9,120-40c15.9,4.4,28,11.5,35,22c-15.6,11.3-26.1,26.4-33,44c0,24.1-5,46-13.7,64.9l0.1-0.1
			c24.4,7.2,16.8,17,6.5,36.1c-0.2,0.4-0.6,0.7-1,0.8c-14.8,3.3-14-4.1-4.1-17.8c0.3-0.5,0.3-1,0-1.5c-2-2.8-5-3.9-8.5-4
			c-23.8,39.9-64.9,64.4-108.2,67.6c-6.2,4.8-10.3,20-14,37c32-4,17,11-6,15c-9.3,21.8-29.2,44.7-53,68c-1.7,4.4-1.6,10.2,0,17
			c3.3,5.5,10.3,2.7,22-11c-3,12-28.8,18.7-26,35c2.5,10.7,6.1,15.4,11,14c2.2,0.2,19.1-16.9,42-41c-17.3,19-33.8,37.2-38,43
			c1.9,10.6,8.8,11.9,18,9c36.3-28.3,58.2-63.6,65-106c11.4-12.2,24-15.6,38-8c-2.8,26.7-16.8,62.5-38,104c-2,27,28,31,36,10
			c-2,16.9-12.5,21-33,10c-5.2,14.1,5,27,31,21c12.3-11.2,18.4-21.9,19-32c2-8.7,2.5-17.8,2-27c13-31,17.3-60.6,45-69
			c74.4-0.9,130.4-29.8,163-94c28.1-44.8,68.2-73,122-82c74.6,8.6,134,2.3,171.5-25.6c8.4-6.2,15.6-13.5,21.8-21.9
			c22.7,18.6,44.5,26.8,64.7,12.5c64-53,93-64,192-45c25.8,1.6,43-21,32-49c-0.4-0.4-0.8-0.9-1.2-1.3c8.9,16.4,1.6,24-16.3,25.8
			c12-5.2,19.9-12.5,16.3-25.8v0c-49.8-56-172.3-73.3-225.8-23.7c25-25.7,60.5-39.2,108-39c-25.9-17.7-27.6-40.9-11-68
			c-10.7,33.8-4.7,59.2,30,70c29.7,1.4,55.9,9.8,80,22c19.6,1.5,33.7-3.9,37-23c-26,24-54.3,19.2-62-5c12.4,20.5,33,22,52,7
			c-3.2-3.9-4.2-10.6-3-20C1090.5,180.5,1114.5,177.5,1105.5,152.5z M164.7,282.3c-0.1,0.2-0.3,0.3-0.5,0.3
			c-3.9,1.1-6.5,0.1-7.6-3.6c-0.1-0.3,0-0.6,0.3-0.8c4.7-3.6,6.3-9.5,4.8-17.7c-0.1-0.5,0.3-1,0.8-1
			C174.6,260.4,174.4,268.6,164.7,282.3z M188.9,247.1l1.1-0.1c4-4.2,9.1-6.8,15.1-7.8c1.1-0.2,2.2,0.6,2.4,1.7
			C209.7,252.8,194.1,259.4,188.9,247.1z M280.9,214.4c-0.5,0.4-1.3,0.6-2,0.4c-3.2-0.8-5.2-2.5-5.8-5.1c-0.2-1.1,0.3-2.2,1.3-2.6
			c1.3-0.6,3.2-0.9,5.7-1c1.1,0,2,0.7,2.3,1.7C283.2,210.8,282.7,213,280.9,214.4z M315.9,215.2c-0.8,0-1.1-1.1-0.5-1.5
			c6.6-4.8,11.3-10.5,13.8-17.1c0.3-0.8,1.4-0.8,1.6,0.1C334.9,210.6,328.7,215.7,315.9,215.2z M184,533c0,0-0.1,0.1-0.1,0.1
			c-4.7,6.1-7.9,4.5-9.8-3.5c-0.1-0.4,0-0.7,0.2-1c3.8-4.6,6.2-6.7,5.6-4.1c-0.2,1.1,1.1,1.8,1.9,1C192.2,515.9,193.6,517.4,184,533
			z M195,551.5c-0.4,0.7-2.2-1.3-2.6-1.8c-0.6-0.7-1.1-1.6-1.4-2.5c-0.3-0.9-0.3-1.9-0.1-2.9c0.1-0.5,0.3-1.1,0.5-1.6
			c0.2-0.5,0.4-1,0.9-1.3c0.1,0,0.1-0.1,0.1-0.1c0,0,0,0,0.1,0c0.2,0,0.4,0.2,0.5,0.3c0.4,0.2,0.7,0.5,1,0.8c0.6,0.5,1.1,1,1.5,1.7
			C197.2,546.5,196.3,549.1,195,551.5z M1035.3,6.6C1035.3,6.6,1035.4,6.6,1035.3,6.6c-9.3,9.2-16,18.1-15.8,28.8
			c0,0.6-0.5,1.1-1.1,1l-6.6-0.4c-0.5,0-0.8-0.4-0.8-0.9C1012.6,22.3,1021.3,13.3,1035.3,6.6z M992.3,49c0,0,0.1,0,0.1-0.1
			c2.7-1.6,6.1,0.3,6.2,3.5c0.1,2.7,0.1,4.5,0.1,5.7c-0.1,2-2.1,3.3-4,2.6c-1-0.4-1.8-0.8-2.5-1.3C988.3,56.9,988.4,51.4,992.3,49z
			 M995.2,78.2c2.5,1,4.5,3.1,5.2,5.7c1.9,6.4-0.5,7.9-7.1,4.4c-1.6-0.8-2.8-2.2-3.4-3.8C987.4,78,989.2,75.8,995.2,78.2z
			 M936.4,66.4c2.5-3.5,6.1-6,10.2-7.3c13.5-4,16.2-0.9,8.2,9.4c-2.4,3-5.8,5-9.6,5.6C934.9,75.7,931.4,73.5,936.4,66.4z M923,71.4
			c2.7,0.2,4.5,3,3.3,5.4c-0.9,1.8-2.6,2-5,0.9c-0.9-0.4-1.6-1.1-2.1-1.9C917.2,72.6,918.4,71.1,923,71.4z M920.9,88
			c9.5-0.3,8.5,1,6.4,8.5c-4.2,8-10.3,7.1-18.1-2c-0.8-1-1.4-2.1-1.8-3.3c-3.6-12.3-1.5-13.2,10.5-4.2C918.8,87.7,919.9,88,920.9,88
			z M898.4,109.2c7.7-0.8,21.1,10,22.2,16.4c0.3,1.7-1,3.3-2.7,3.4c-7.7,0.4-19.4-9.5-21.6-16.5
			C895.9,110.9,896.9,109.4,898.4,109.2z M892.6,98.5c-1.4-2.1-1.2-4.6,0.4-5.7c1.6-1.1,4-0.3,5.4,1.8c1.4,2.1,1.2,4.6-0.4,5.7
			C896.4,101.3,894,100.5,892.6,98.5z M886.8,62.5c4.8-9.4,8.9-11.8,11.8-2c0.3,0.9,1.1,1.5,2.1,1.5c6.1-0.1,9.1,0.7,7.7,2.6
			c-0.2,0.3-0.4,0.7-0.5,1.1c-1.1,6.4-2.5,7.6-4.4,3.6c-0.4-0.8-1.2-1.3-2-1.3h-2.2c-0.8,0-1.6,0.5-1.9,1.3
			c-3.9,9.3-7.4,4.9-10.8-3.7C886.2,64.6,886.3,63.5,886.8,62.5z M873.6,83.1C873.8,81,875,79,877,78c2.9-1.4,4.4-0.1,4.9,3.2
			c0.5,3.2-1.3,6.4-4.3,7.6C874.5,89.9,873.2,88,873.6,83.1z M867.3,49.5c1.8,1,3.2,2.6,4,4.5c3.1,8,0.6,8.8-7.6,2.5
			c-0.4-0.3-0.8-0.8-1.1-1.2C856.6,46.5,858.5,44.8,867.3,49.5z M855.3,84.1c5.9-7.6,8.7-7,10.2,0.3c0.3,1.4,0.9,2.8,1.9,3.9
			c2.7,3,0.2,5.2-5.5,6.9c-2.2,0.7-4.5,0.1-6.1-1.5c0,0-0.1-0.1-0.2-0.2C853.1,91,853.1,86.9,855.3,84.1z M850,147.8
			c-1.2,1.5-3,2.5-4.9,2.8c-8.5,1.2-12.7-3.1-12.6-12.8c0-1.9,0.7-3.7,1.9-5.2c6-7.2,11.8-4.5,6,4.2c-0.8,1.2-1,2.6-0.6,4
			c0.7,2.3,2,3.1,3.7,2.6c1.4-0.4,2.5-1.7,2.8-3.1C848.4,130.1,859.5,136.3,850,147.8z M851.4,252.2c0.1,0.2,0.2,0.4,0.2,0.6
			l1.1,4.7c0.2,1,0.3,2.1,0.2,3.2c-0.9,6.9-3.7,6.4-8.3-0.8c-0.4-0.7-0.7-1.4-0.9-2.2C842.3,250.6,848.3,244.6,851.4,252.2z
			 M833,219.4c-1.5-1.1,8.1-5.3,11.9-4.5c0.1,0,0.2,0.1,0.3,0.1c2.4,0.9,3.4,3,3.7,5.8c0.3,3-2.1,5.4-5.1,5.3
			C839.8,225.9,836.2,223.7,833,219.4z M836.3,203.9c-0.2,0.1-0.5,0.1-0.7,0.2l-4.4,0.6c-1.4,0.2-2.5,1-3.1,2.3
			c-3.1,6-7.2,2.7-11.8-5.3c-0.2-0.4-0.4-0.9-0.5-1.3c-1.3-7.6-1.1-8.6,9.2-4.7c0.6,0.2,1.3,0.3,1.9,0.3l9.5-0.4
			C855.9,195.5,852.7,198.7,836.3,203.9z M754.6,235c-0.3,1.1-0.9,2.1-1.8,2.8c-1.4,1.1-2.5,2.5-3.4,4.3c-0.3,0.6-0.9,1.2-1.5,1.5
			c-4.9,2.5-9.4,1.6-6.4-5.5c0.3-0.7,0.9-1.2,1.6-1.6c1.7-0.8,3.2-2.4,4.7-4.6C749.5,225.1,756.3,227.9,754.6,235z M754.8,207.9
			c3.3-0.7,6.3-0.3,6.5,0.9c0.3,1.2-2.2,2.8-5.6,3.5c-3.3,0.7-6.3,0.3-6.5-0.9C748.9,210.2,751.4,208.6,754.8,207.9z M754.5,260.7
			c2.8,0,5,2.6,5,5.9s-2.2,5.9-5,5.9s-5-2.7-5-5.9S751.7,260.7,754.5,260.7z M763.6,280.4c0.3-0.3,0.5-0.5,0.7-0.8
			c2.4-3.8,8.2-2.2,17,4.2c1.1,0.8,2.5,1.3,3.9,1.4c10.3,0.4,8,3.6,0.9,8c-4.8,3.5-8.1,2.2-10.2-2.8c-0.6-1.5-2-2.5-3.5-2.8
			c-0.9-0.1-1.7-0.2-2.6-0.3c-1.5-0.1-3,0.6-3.9,2C759,300.1,753.8,289.6,763.6,280.4z M775.3,150.5c-1-0.3-1.3-1.6-0.6-2.3
			c6.1-6.1,11.9-6.9,11.5-0.5c-0.1,0.8,0.3,1.6,0.9,2.1c2.8,2.4,2.2,6-3,10.3c-0.3,0.3-0.6,0.6-0.7,1c-3.2,9.5-23.4,1.3-4.3-4.1
			C780,154,779,151.8,775.3,150.5z M790,204c15.8-4.3,24.3,7.2,4.7,6.1c-0.6,0-1.1,0.1-1.6,0.4c-8.8,5.5-14.9,7.8-18,6.3
			c-0.7-0.3-1.1-1.2-0.9-2C775.2,209.5,781,206.1,790,204z M823.3,130.9c-2.9,9-7.7,13.7-14.5,14.3c-2.2,0.2-3.9-1.6-3.8-3.7
			c0.5-9.4,6.2-13.6,16-13.6C822.6,127.8,823.8,129.3,823.3,130.9z M824,143.3c1.3,1,1.3,3.3-0.1,5.2s-3.6,2.6-4.9,1.6
			c-1.3-1-1.3-3.3,0.1-5.2C820.5,143,822.7,142.3,824,143.3z M810.9,166.5c-0.6,0.9-0.8,2.1-0.6,3.2c1.9,11-1.4,12.3-7.7,7.8
			c-0.4-0.3-0.8-0.5-1.3-0.7c-8.8-3.2-8.6-7.7,1.3-13.6c0.2-0.1,0.5-0.3,0.7-0.5C817.5,151.2,818.8,153.8,810.9,166.5z M774.8,248.5
			c2.6-1.7,5.3-3.2,7.9-4.2c2.7-1,5.6,1.3,5,4.2c-0.5,2.8-2.6,5.7-6.7,8.6c-7.2,6.2-12.2,0.1-7.7-7.1
			C773.7,249.4,774.2,248.9,774.8,248.5z M785.6,228.6c-1.4-0.3-2.3-1.6-2.1-3c1.2-6.1,5.6-9.1,13.3-8.8c1.8,0,3.2,1.7,2.8,3.5
			C798,226.9,793.6,230,785.6,228.6z M799.8,268.3c0.2-0.2,0.3-0.5,0.4-0.7c1.2-2.9,3.8-5.2,7.8-6.9c0.1,0,0.2-0.1,0.3-0.1
			c10.3-3,12.4-1.3,5.8,5.4c-2.6,3.6-5,5.8-7.2,6.7c-0.5,0.2-1,0.5-1.4,0.9C799.2,280.2,793.7,276.7,799.8,268.3z M816.4,242.3
			c-0.8-0.2-1.7-0.1-2.5,0.2c-6.5,2.4-7.5-2.9-0.8-6.5c13.2-9.4,10.5-7.5,14.5,5.5c2.4,8.7,0.3,9.8-6.5,2.6
			c-0.7-0.7-1.5-1.2-2.5-1.4L816.4,242.3z M841.9,75.8c-0.6,0.2-1.2,0.3-1.8,0.3c-13.1,0.6-13.8-7.1-2.1-9
			C853.9,64.1,855,71.7,841.9,75.8z M829,50c2-3.1,5.3-3.5,9.7-1.7c2.5,1.1,4.3,3.5,4.3,6.2c0,4.1-3.7,4.5-10.5,2.1
			c-1-0.3-2.1-0.3-3,0.2C820.1,61.2,818.4,60,829,50z M832,85.8c1.4,0.8,2.3,2.1,2.6,3.6c0.8,4.3,0.6,7-0.5,8.3
			c-8.5,11.8-15,6.8-6-1.7c2.2-2.3,1.8-4.2-1.8-5.7C813.9,84,818.1,78.1,832,85.8z M811.5,95.9c0,0.4,0.1,0.8,0.1,1.2
			c4.4,19.9,0.8,18.7-11.2,1.4c-1.5-2.1-1.3-5,0.4-6.9C808,83.6,811.3,83.9,811.5,95.9z M792.5,67.4c0.3-0.2,0.5-0.5,0.6-0.8
			c0.7-1.2,4.3-2.7,8.8-4.2c0.7-0.2,1.1-0.8,1.1-1.5c0.2-6.5,5.6-2.7,4.2,4.5c-0.1,0.4-0.3,0.8-0.5,1.1c-2.1,2.5-5.1,4.3-9.3,5.4
			c-0.2,0-0.4,0.1-0.5,0.2C789,76.8,785,73.2,792.5,67.4z M783.4,108.2c2.3-10.3,5.8-3.6,4.7,5.9c-0.1,0.7-0.4,1.3-0.8,1.8
			c-2.1,2.4-5.7,3.8-10.8,4c-1.5,0.1-2.4-1.6-1.5-2.8c2.4-3.3,4.6-5.4,6.6-6.5C782.5,110.2,783.1,109.2,783.4,108.2z M775.7,94.8
			c0.7-1,2.3-1.2,3.2-0.3c2,2,2.8,4.5,2.2,7.5c-2.1,5.5-4.7,9.2-7.5,11.8c-1.1,1-2.9,0.4-3.1-1.2C769.7,105.9,771.8,100,775.7,94.8z
			 M767.3,181.7c0.2-1.2,1.5-1.9,2.7-1.9c7.7,0,6.8,9.8,0.5,13.3c-1.3,0.8-3.3,0.1-3.5-1.4C766.7,188.5,766.8,185.2,767.3,181.7z
			 M737.8,111.8c4.2-9,6.8-8.3,7.2,7c0,0.1,0,0.3,0,0.4c0.8,7.1,2.8,7,5.7,1.4c0.2-0.4,0.3-0.8,0.4-1.3c2-11.3,11.1-7.2,7.7,5.9
			c-0.5,1.8-1.5,3.4-3,4.5c-10.4,8.2-16.2,3.4-19-9.5C736.2,117.5,736.6,114.5,737.8,111.8z M734.8,155c1-1.7,3.5-1.6,4.5,0.1
			c1,1.8,1.3,4.4,0.7,8c0,0.2-0.1,0.5-0.2,0.7c-3,10.1-5.2,10.1-6.7,1.7c0-0.3-0.1-0.6-0.1-0.9C733.1,160.7,733.4,157.2,734.8,155z
			 M727.3,129.2c2.1,0.5,3.3,3.2,2.6,5.8c-0.7,2.7-3,4.4-5.1,3.8c-2.1-0.6-3.3-3.2-2.6-5.8C722.8,130.3,725.1,128.6,727.3,129.2z
			 M705,127.4c0-0.3,0-0.6,0.1-0.9c0.6-3.1,2.9-6.5,6.3-10c1-1.1,2.4-1.9,3.9-2.3c7.9-2.3,10.4-0.3,9.2,4.7
			c-0.4,1.9-1.6,3.4-3.2,4.5c-2.9,1.9-5,5-6.8,8.6c-0.3,0.5-0.4,1.1-0.5,1.8C713.7,139.8,704.5,143.3,705,127.4z M711.1,155.2
			c0.1-0.1,0.2-0.2,0.3-0.3c11.1-11.7,13.8-10.8,8.9,1.5c-0.2,0.4-0.4,0.8-0.7,1.2c-1.6,2.3-1.7,5.3-0.8,8.8
			c0.1,0.4,0.3,0.9,0.5,1.3c4.9,8.8,2.6,10.1-5.9,4.9c-1.4-0.9-3.1-1.2-4.7-0.9C700.5,172.7,701.7,166.9,711.1,155.2z M715.9,205.3
			c-2.5,6.9-4.9,7.4-8.7,0.9c-0.8-1.4-1.2-3-1.1-4.6c0.2-5.7,1.2-10.2,3.1-13c1.2-1.8,4-1.5,4.8,0.6c1.1,2.9,1.7,7,2.4,12.5
			C716.4,202.9,716.3,204.1,715.9,205.3z M702.5,238.9c-2.2,1.6-5.6,0.8-7.6-1.9c-2-2.7-1.7-6.2,0.5-7.8c2.2-1.6,5.6-0.8,7.6,1.9
			C705,233.7,704.8,237.2,702.5,238.9z M702,244c0.5-0.5,1.3-0.1,1.1,0.6c-6.7,37-38.4,17.6-18.9-6.5c0.5-0.7,1.6-0.2,1.5,0.6
			C683.9,256.8,687.5,258.9,702,244z M690.2,187.3c4-14.9,11.4-15.5,10.1-0.2c-0.1,1.5-1.1,2.8-2.4,3.4c-3.3,1.5-4.3,5-4,9.6
			c0.1,1.2,0.6,2.2,1.4,3.1c14.7,14.6,4.9,15.9-9.2,0.8c-3-3.8-1.2-9.1,3.5-15.4C689.8,188.2,690.1,187.8,690.2,187.3z M657.9,194.7
			c-0.1,0.8,0.5,1.5,1.3,1.5c14.2-0.5,16.4,2.6,4.7,9.7c-1.8,1.1-4,1.6-6,1.3c-5.9-0.9-9.4-3.7-8-10.5c0.9-2.4-0.6-4.9-3.6-7.6
			c-1.1-1-0.3-2.7,1.2-2.5c2.8,0.4,5.5,0.9,5.5,0.9C656.8,189.9,658.3,192.3,657.9,194.7z M638.3,153.5c0.1-0.4,0.4-0.6,0.7-0.8
			l5.1-2.7c0.1,0,0.2,0.1,0.1,0.2c-1.3,2.1-1.3,4-0.4,5.8c0.3,0.7,1,1.1,1.8,1.1c10.1,0,12.2,4.9-0.6,6.2c-1,0.1-2.1,0-3.1-0.5
			C637.7,160.8,636.7,157.6,638.3,153.5z M634.6,204.4c0,0,0,0.1,0,0.2c1,7.1-7.1,12-13.2,8.2c-1.4-0.9-2.6-2-3.6-3.3
			c-1.6-2.2-0.6-5.2,1.9-6.1c2.3-0.8,5.7-1.5,10.1-2.2C632.1,200.7,634.2,202.2,634.6,204.4z M607.9,173.7c6.1,0.6,11.5,0.4,16.9-1
			c1-0.3,2,0.8,1.5,1.8c-1.2,2.3-3.6,4.3-7.3,6.3c-1,0.5-2.2,0.7-3.3,0.5c-3.8-1-6.3-3.1-8.5-6.4
			C606.9,174.3,607.3,173.6,607.9,173.7z M588.9,196.7c2-5.6,2.9-10.5,3.4-16.2c0.1-1.4,1.7-2.1,2.8-1.3c8.5,6.1,7.1,11.7-4.1,19.1
			C589.9,199.1,588.5,198,588.9,196.7z M580.7,232.6c0.8,0.3,1.5,0.7,2.1,1.2c3.3,2.4,3.5-1.4,0.9-11.5c-0.3-1.1-1.2-2.1-2.3-2.4
			c-10.8-3.5-2-9.5,6.5-5.7c1.9,0.9,3.1,2.7,3.3,4.8c1,12.1,0.1,20-2.7,23.7c-1.4,1.8-4,2.1-5.8,0.7
			C569.8,233.2,564.8,227.3,580.7,232.6z M566.8,214.3c1.4-0.3,2.9,0.5,3.3,2c0.7,2.8-1,7.3-3.1,10.2c-1.3,1.9-4.3,1.2-4.6-1.1
			C561.7,219.3,562.8,215.3,566.8,214.3z M567.2,280.8c0.5-0.8,1.8-0.4,1.7,0.6c-1.4,11.2-1.3,22,0.7,32.4c0.3,1.5-1.3,2.5-2.5,1.6
			C557.2,308,556.8,296.8,567.2,280.8z M572.5,329.4c2.9-0.9,2.8,5.3,0,6.4c-7,2.9-12.3,1.2-16.1-4.5c-0.7-1.1,0-3,1.2-2.6
			C563.3,330.2,568.4,330.6,572.5,329.4z M553.3,291.8c-1,1.4-1.6,3-2,4.6c-2.3,11.5-10.5,10.2-10.4-3.5c0-1.9,0.7-3.8,2-5.3
			C554.7,273.8,562.2,278.6,553.3,291.8z M546,220.4c1.1-0.4,2.4,0.3,2.6,1.5c1.3,6.1-0.9,10.5-5.8,13.6c-1.4,0.9-3.2,0-3.4-1.6
			C538.6,227.1,540.4,222.4,546,220.4z M515,232c18-13.4,29.2-12.5,5.9,4.4c-0.6,0.4-1,0.9-1.3,1.6c-1.5,3.3-2,6.8-1.4,10.6
			c0.1,0.5,0.3,0.9,0.7,1.2c18,14.6,0.9,15.5-5.7,1.6c-0.1-0.3-0.2-0.6-0.3-0.9C511.4,241.6,511.7,234.9,515,232z M507.7,295.3
			c5.3-9.8,12.2-9.2,20.3-1c1.9,1.9-1.6,7.7-2.3,5.1c-0.8-3.6-16-3-15.8-0.4C510.1,300.9,506.8,296.9,507.7,295.3z M507,306.9
			c6.6,1,13.2,1.6,18.4,0.7c2.4-0.4,3.7,2.7,1.8,4.2c-5.8,4.6-15.3,6.6-21.9,5.3C498.7,315.8,500.4,305.9,507,306.9z M495.3,248.7
			c2.5-0.5,4.9,1.3,5.1,3.8c0.5,5.8,0.5,10.4,0,13c-0.3,1.7-2.6,2.1-3.5,0.6c-10.4-16.5-21.8,2.9-8,7.9c2.1,0.8,2.9,3.4,1.5,5.2
			c-4.3,6-8.8,6.1-13.5-1.6c-0.6-1.1-1-2.3-1.1-3.6C475.1,259,482.3,251.3,495.3,248.7z M479.1,309.7c-0.4-1.1,0.6-2.2,1.7-1.8
			c13.7,4.6,13.6,13.4,1.4,25.9c-0.4,0.4-1.1,0.1-1-0.5C482.3,324.5,481.8,316.6,479.1,309.7z M463.4,322.5c5.9-2.1,9,0.1,7.7,9.2
			c0,0.3,0,0.7,0.2,1c5,7.2,4.8,11.3,1.4,13.5c-1.1,0.7-2.4,0.5-3.2-0.5c-2.1-2.6-2.6-6.9-1.5-12.6c-0.2-3-1.8-6-5-9
			C462.5,323.5,462.7,322.7,463.4,322.5z M454.9,365.5c-0.5,0.3-1.1,0.1-1.3-0.5c-2.2-5.9-2.8-13.6-1.9-19.3c0.1-0.9,1.1-1.5,2-1.2
			C468.2,349,467.6,357.8,454.9,365.5z M454.4,292.7c0.5-1.3,2.6-0.6,2.6,0.8c-0.3,25.1-9.3,29.7-26.2,7.9c-0.5-0.7,0.2-1.7,1-1.4
			C442.3,304.2,451,301.6,454.4,292.7z M438.3,344.4c1.5-0.8,3.2,0.5,2.7,2.1c-2.3,8.1,1.5,16.5,6.4,25.8c0.8,1.6-0.8,3.3-2.4,2.6
			C425.1,365.7,417.9,355.7,438.3,344.4z M423.9,295.5c-1.6-15.7,6.7-18,21.2-12.3c1.5,0.6,1.3,2.8-0.3,3.1
			c-7.9,1.3-14.3,4.1-18.4,9.9C425.7,297.2,424.1,296.8,423.9,295.5z M435.3,236.4c11,5.7,16.3,14.2,11.7,23.6c0,0,0,0,0,0
			c-5.6,2.7-9.5-5.1-10.5-12.5c-1-7-4.2-5.6-5.1-7.8C430.4,237.4,433.1,235.2,435.3,236.4z M423.9,242.7c0.8-0.6,1.8-0.9,2.7-0.9
			c1.5-0.1,4.1-0.6,2.8,6.7c-1.4,8.1,1,14.6,6.3,19.9c0.7,0.7,0,1.8-1,1.5C414.5,262.3,410,253.3,423.9,242.7z M423.3,386.9
			c1,0.6,1.4,1.9,0.8,2.9c-4.1,7.6-11.5,9-21.8,5.1c-1.2-0.4-1.7-1.8-1.3-2.9C405.6,381.2,413.5,381,423.3,386.9z M399.2,408.3
			c-0.8-1.2,0.2-2.8,1.6-2.5c6.4,1.1,13,1.1,19.9-0.1c1.4-0.2,2.4,1.3,1.6,2.5C414.8,419.6,407.1,419.3,399.2,408.3z M391.8,441.4
			c-0.5-0.2-0.8-0.6-1-1.1c-2.6-9.5,0-14.1,6.5-15.1c0.9-0.2,1.8,0.6,1.8,1.5C399.9,439.5,397.1,443.7,391.8,441.4z M398.2,308.9
			c-2.8-7.5-2.4-12.7,2.1-15.2c2.6,1.4,5.8,5.2,9.8,12.7C406.3,311.5,402.3,312.4,398.2,308.9z M390.6,253.3
			c4.5,2.2,9.1,6.1,13.6,11.7c0.2,0.3,0.4,0.6,0.4,1c1,7.4,0.1,11.7-2.7,12.7c-0.6,0.2-1.2,0.1-1.7-0.2c-6-4-10-12-12.5-23
			C387.4,254,389.1,252.6,390.6,253.3z M389.9,370.9c0.2,0.7-0.1,1.4-0.6,1.8c-5.9,4.6-11.8,4.1-17.6,0.3c-0.9-0.6-1-1.8-0.4-2.6
			C380.4,359.7,386.6,359.8,389.9,370.9z M380.7,387.7c1.1,0.4,1.1,2,0,2.3c-8.3,2.7-16.6,6.4-24.9,11.1c-1,0.5-2.1-0.4-1.8-1.4
			C358,386.6,367.1,383,380.7,387.7z M354.9,336.4c0.6-2,3.1-2.6,4.5-1.1c1.6,1.6,3.5,4.2,5.8,7.8c0.6,1,0.5,2.3-0.2,3.2
			c-2.2,2.6-4.8,2.8-7.6,0.7c-0.4-0.3-0.6-0.7-0.8-1.1C354.8,341.9,354.2,338.7,354.9,336.4z M377.9,405.6
			c-4.9,15-11.5,20.3-20.6,11.7c-0.7-0.7-0.6-1.9,0.2-2.4c5.8-4.3,11.9-8,18.2-11.2C376.9,403,378.3,404.3,377.9,405.6z
			 M353.7,432.4c-3.7,3-12.1,5-24.4,6.4c-1,0.1-1.8-0.9-1.4-1.9c4.8-11.3,13.6-12.8,25.6-6.7C354.3,430.6,354.4,431.8,353.7,432.4z
			 M348.5,448.2c1-0.1,1.9-0.5,2.7-1.2c18.6-15.5,20.5-13,5.7,7.4c-0.9,1.3-2.4,2.1-4,2.1C320.2,457.8,316,452.1,348.5,448.2z
			 M360.6,471c2.6-7.7,9.4-12.6,20.5-14.5c1.2-0.2,2,1.1,1.4,2.1c-5.3,8-12,12.9-20.4,14.2C361.1,472.9,360.3,472,360.6,471z
			 M370.9,260.3c2.9-1,5.8-1.5,8.4-1.4c0.9,0,1.4,0.9,1.1,1.7c-3.5,9.4-4.1,15.9-1.8,19.6c0.7,1.2-0.6,2.5-1.7,1.8
			c-3.6-2.2-6.2-7.9-6.8-20.4C370,261,370.3,260.4,370.9,260.3z M361.2,231.7c0.7-1.1,2.2-1.4,3.4-0.8c1.1,0.6,2.4,1.6,3.9,3.1
			c1,1,1,2.5,0.2,3.6c-1.6,2-3.3,2.9-5.2,2.8c-1-0.1-1.8-0.7-2.2-1.5C359.9,236.1,359.8,233.7,361.2,231.7z M358.5,293.7
			c1-1.1,2.6-1.5,4.1-1.1c18.3,6.2,22.2,10.9,11.7,14c-0.8,0.2-1.6,0.2-2.4,0c-6.8-2.3-11.2-2.2-11.6,1.9c-0.1,0.8-0.4,1.6-0.9,2.3
			C346.9,324.8,345.9,307.7,358.5,293.7z M323.9,352.3c-0.6-0.8-0.8-1.9-0.8-2.9c1.1-14,6.4-19.9,16.5-16.7c2.8,0.9,4,4.3,2.3,6.8
			c-8.7,13.3-7.4,19.7,5.8,17.7c1.3-0.2,2.5,0.2,3.5,1c4.2,3.4,0.8,4.9-4.3,5.9C338.1,366.6,330.5,362,323.9,352.3z M320.5,485
			c2.4-5.3,9.7-7.4,20.5-7.1c1.8,0,2.8,2.1,1.7,3.6c-5.6,7.4-12.5,9.9-21,6.5C320.6,487.4,320,486.1,320.5,485z M273.2,431
			c0.1-0.3,0.1-0.6,0.2-0.9c0.3-1.1,0.6-2.1,1.1-3.2c0.9-1.9,2.1-3.6,3.6-4.9c1.6-1.4,3.5-2.4,5.5-3.1c3.8-1.3,7.9-1.4,11.9-1.1
			c0.3,0,0.4,0,0.4,0.1c0.2,0.2,0,0.9-0.1,1.1c-0.1,0.5-0.1,1-0.3,1.5c-0.3,1.3-0.7,2.6-1.3,3.9c-0.9,1.8-2.2,3.4-3.8,4.6
			c-1.8,1.3-3.9,2.1-6.1,2.6c-3.6,0.8-7.3,0.7-11,0.3c-0.3,0-0.5,0-0.5-0.3C273,431.5,273.1,431.3,273.2,431z M270.4,451.5
			c0.4-0.4,1-0.8,1.5-1.2c1.1-0.7,2.3-1.3,3.5-1.7c2.5-0.8,5-1.3,7.5-1.8c3.4-0.7,6.9-1.4,10.3-2.1c1.7-0.4,3.5-0.8,5.2-1.2
			c0.8-0.2,1.7-0.4,2.5-0.7c0.3-0.1,1.4-0.6,1.8-0.4c0.1,0,0.2,0.1,0.2,0.2c0.3,1.8-0.8,3.5-2.2,4.7c-1.8,1.5-4.2,2.6-6.4,3.6
			c-2.1,0.9-4.3,1.8-6.5,2.6c-2.8,1-5.5,2-8.2,3.2c-1.9,0.8-4,1.7-5.5,3.3c-1.5,0.7-2.5-1.6-2.9-2.6c-0.5-1.4-0.8-2.8-1.1-4.3
			C270.1,452.4,269.8,452,270.4,451.5z M283.5,468.2c-0.8-0.4-1.1-0.8-1.1-1.2c-0.1-1.3,3.2-2.2,4.3-2.8c3.6-1.9,7.4-3.2,11.4-4
			c1.5-0.3,1.8-0.4,1.8,1.1c0,0.9-0.1,1.7-0.2,2.6c-0.5,3.5-2.2,7-6.1,7.4c-2.3,0.2-4.7-0.6-6.8-1.5
			C285.8,469.3,284.6,468.8,283.5,468.2z M284.2,498.5c-0.1,1.1-3.7-0.6-4.5-1c-1.2-0.6-2.4-1.5-3.2-2.6c-0.9-1.1-1.4-2.5-1.7-3.9
			c-0.1-0.8-0.3-1.6-0.3-2.5c0-0.8,0.1-1.5,0.5-2.2c0-0.1,0.1-0.1,0.1-0.2c0,0,0,0,0.1,0c0.2-0.2,0.6,0,0.8,0.1
			c0.6,0.1,1.2,0.3,1.8,0.5c1,0.3,2.1,0.8,3,1.4C284.5,490.5,284.6,494.6,284.2,498.5z M215,521c-1.3,0.8-2.6-4.3-2.8-5.4
			c-0.4-1.8-0.5-3.7-0.1-5.5c0.4-1.9,1.3-3.6,2.5-5c0.7-0.8,1.5-1.7,2.3-2.4c0.8-0.7,1.6-1.3,2.7-1.4c0.1,0,0.2,0,0.3,0
			c0,0,0.1,0,0.1,0c0.4,0.1,0.5,0.6,0.7,0.9c0.4,0.7,0.8,1.5,1.1,2.3c0.6,1.4,1,2.8,1.1,4.3C223.4,514.5,219.4,518.2,215,521z
			 M243.3,470.1c-0.4,0.2-0.6,0.8-0.4,1.2c7.1,14.2-3.3,18.9-11.1,6.6c-0.2-0.3-0.5-0.4-0.8-0.4l-14.7,0.9c-0.5,0-0.8,0.4-0.8,0.9
			c-0.3,18.1-10.8,18.9-9.5-0.4c0-0.2-0.1-0.5-0.2-0.7c-2.9-3.2-4.9-7.7-6.2-13.2c-0.1-0.3,0-0.7,0.3-0.9
			c15.6-12.5,22.3-8.6,7.8,4.1c-0.2,0.2-0.3,0.4-0.3,0.6c-0.2,4.1,2.2,5.5,6.9,4.6c0.1,0,0.1,0,0.2-0.1c9.7-3.8,15.6-7.4,14.4-10.4
			c-0.3-0.6,0.3-1.2,1-1.2c6.6,1,12.1-0.4,16.5-4.4c0.5-0.5,1.3-0.2,1.5,0.5C248.9,463.4,247.9,467.6,243.3,470.1z M262.3,502.9
			c-1.8,0-3.5-0.4-5.1-1.1c-1.6-0.8-3-2-4.1-3.5c-0.6-0.8-1.2-1.7-1.7-2.7c-0.4-0.8-0.8-1.8-0.7-2.8c0-0.1,0-0.2,0.1-0.3
			c0,0,0-0.1,0-0.1c0.2-0.3,0.7-0.3,1-0.4c0.8-0.2,1.5-0.4,2.3-0.5c1.4-0.2,2.8-0.3,4.2-0.1c5.5,0.7,7.9,5.3,9.5,10
			C268.5,502.9,263.4,502.9,262.3,502.9z M579.4,360.3c-48,3.6-83.3,10.3-96.8,22.1c0,0-0.1,0.1-0.1,0.1
			c-48.8,84.2-120.6,130.8-214.4,141.5c-0.7,0.1-0.8-0.9-0.2-1.1c94.1-17.6,162.7-65.7,201.5-149.4c0.1-0.1,0.2-0.2,0.3-0.3
			c26.5-10.8,64.4-14.7,109.7-14.2C580,359.3,580.1,360.3,579.4,360.3z M582.1,290.1c-0.2-2.5,0.6-5,2.3-7
			c10-11.7,15.1-13.4,11.2,3.5c-0.2,0.8-0.3,1.6-0.4,2.4C594,304.2,583.2,304.5,582.1,290.1z M608.5,320c-1.1-0.7-2.5-0.9-3.6-0.3
			c-2.5,1.1-3.8,3.2-4.3,5.4c-0.3,1.3,0.5,2.7,1.7,3.2c14.1,6.5-3.5,9.3-8.5,3.1c-0.6-0.7-0.8-1.7-0.7-2.7
			c1.4-9.9,7.5-14.4,16.5-15.5c2-0.2,3.9,0.9,4.7,2.7C617.1,321.9,617.6,325.8,608.5,320z M613.6,290c-5.2-2.8-8.3-10.9-9.3-24.3
			c-0.1-1.5,1.6-2.4,2.8-1.5c6.8,5.5,10.6,13,11,23C618.1,289.5,615.6,291,613.6,290z M626.1,236.9c-0.7,0.7-1.5,1.3-2.5,1.6
			c-11.9,5-12.3,6.5-17.3-4.7c-0.3-0.5-0.4-1.1-0.5-1.7c-4-23.2,5.2-31.8,5.7-5.6c0,1.7,1.1,3.2,2.7,3.5c1.4,0.3,3,0,4.7-1
			C635.1,217.8,642.2,221.3,626.1,236.9z M630.5,264c-0.4,0.5-1.2,0.4-1.4-0.3c-1.3-5.7-2-10.2,3.8-12.5c6.8-1.4,11,0.9,14.1,4.1
			c1,1,0.2,2.7-1.2,2.6C638.9,257.5,634.3,258.5,630.5,264z M633.5,302c0-2.5,3.4-4.5,7.5-4.5s7.5,2,7.5,4.5c0,2.5-3.4,4.5-7.5,4.5
			S633.5,304.5,633.5,302z M649.7,332c-2.1,1.2-5.3-0.2-7.1-3.3c-1.8-3.1-1.5-6.6,0.7-7.8s5.3,0.2,7.1,3.3
			C652.1,327.3,651.8,330.8,649.7,332z M635.3,270.5c-0.3-0.8,0.4-1.6,1.2-1.3c9.4,3.1,13.1,2.2,17.3-5.3c0.7-1.2,2.4-0.9,2.7,0.4
			C661.2,285.3,644.3,291.2,635.3,270.5z M661.8,343.7c-0.8,1.8-2.6,2.7-4.1,2c-1.5-0.7-2.2-2.6-1.4-4.4c0.8-1.8,2.6-2.7,4.1-2
			C661.9,339.9,662.5,341.9,661.8,343.7z M660.4,240.2c-17.3-6.1-14.6-11.6,4.2-16.7c0.9-0.2,1.5,0.9,0.8,1.5
			c-4.6,4.4-5.5,8.8-3.3,13.2C662.8,239.3,661.7,240.6,660.4,240.2z M672.2,315.3c-0.4,2.1-2.8,3.2-4.6,2.1
			c-2.1-1.3-3.7-2.7-4.6-4.3c-0.8-1.5,0-3.4,1.7-3.7C670.8,307.9,673.3,309.9,672.2,315.3z M672.3,188.6c-0.3,1.3-1.9,1.8-2.9,0.9
			c-3.6-3.4-7.1-5.7-10-7.1c-1.6-0.8-1.4-3.1,0.3-3.6C670.1,175.8,674.7,178.7,672.3,188.6z M678.2,156.8c0.6-0.6,0.4-1.6-0.4-1.8
			c-16.3-5.6,10.1-23.5,10.6-5.6c0,0.4,0.1,0.8,0.2,1.2c1.1,3.2,0.9,6.5-0.2,9.9C681.7,173.1,665.6,169.8,678.2,156.8z M675.1,290
			c0.5-15,2.6-20.3,7.8-5.3c0.7,1.9,2.6,3.2,4.6,2.9c5.5-0.5,3.2,1,1.6,8c-0.3,1.4-1,2.6-1.9,3.7c-7.2,8-6.2,8.3-11.5-5.3
			C675.2,292.6,675,291.3,675.1,290z M702,334.4c-5.5,5.1-11.8,8.9-19.8,10.5c-2,0.4-4-2.6-2.5-4.1c4.3-4.4,10.6-8,19.2-11.4
			C701.5,328.4,704,332.5,702,334.4z M711.1,316.6c-2.5-0.5-5.1-0.5-7.9,0c-0.9,0.1-1.5-0.8-1.1-1.5c3.9-7,7.4-11,9.6-7.3
			c1.6,1.5,2.6,3.2,3.1,5C715.4,315,713.4,317.1,711.1,316.6z M716.6,283c-0.4,1.5-1.8,2.6-3.4,2.5c-3.4-0.4-5.3-5.1-6-12.9
			c-0.2-1.8,1.6-3,3.2-2.3C716.1,273.1,718.2,277.3,716.6,283z M729.3,340.5c-4.5,0.7-8.2-0.1-10.6-3c-1.7-2.1,0-5.2,2.7-4.8
			c3.6,0.5,6.5,1.2,8.6,2C732.9,335.8,732.4,340,729.3,340.5z M743.8,319.2c-0.6,2.5-3.4,3.8-5.8,3.1c-3.8-1.1-5.3-2.7-3.2-5.1
			c0.7-0.8,1-2,0.7-3c-2.1-7.4-0.5-9,6.8-1.9c0.5,0.5,0.9,1.2,1.1,1.9C744,316.2,744.1,317.8,743.8,319.2z M1032,270
			c25.6-2.1,36.9-11.8,25-34C1076.5,258.5,1060,272.4,1032,270z M1034.5,229.5c16,28-2.1,44.1-40,37c37.8-0.7,52.2-13.2,32.7-42.8
			C1029.2,224.2,1031.4,225.6,1034.5,229.5z M996.8,245c-0.4,1.3-1.7,2-3,1.7c-4-0.8-6.6-2.6-8.3-5.3c-0.7-1.1,0-2.5,1.3-2.7
			C995.4,237.2,998.3,239.6,996.8,245z M978,219.7c3.3-2,5.9-4.5,7.5-7.6c0.7-1.3,2.6-1.2,3.1,0.2c4.2,11.3,0.8,15.1-10.1,11.3
			C976.7,223,976.5,220.6,978,219.7z M953.1,194.1c6,0.6,9.7,3.8,10.7,9.9c0.2,1.1-0.7,2-1.8,2c-6.1-0.5-9.7-3.8-10.7-9.8
			C951.1,195,951.9,194,953.1,194.1z M940.9,216.6c6.3-6.6,11-6.4,14.4-0.1c1.1,2,0.2,4.5-1.8,5.5c-3.8,1.8-7.6,1.8-11.3,0.3
			C939.8,221.4,939.2,218.4,940.9,216.6z M931.7,238.1c-0.4,1.9-1.9,3.2-3.6,2.9c-1.6-0.3-2.6-2.1-2.2-4c0.4-1.9,1.9-3.2,3.5-2.9
			C931.1,234.4,932.1,236.2,931.7,238.1z M915,207.3c0,0.4,0.1,0.9,0.2,1.3c1,2.4,2.4,3.7,4.3,3.7c0.8,0,1.5-0.4,2-1
			c8.5-10.1,14.5-1,3,5.9c-0.4,0.2-0.9,0.4-1.3,0.5c-5.7,0.9-10.4-0.7-14.1-5.2c-0.4-0.5-0.6-1.2-0.7-1.8
			C907.8,192.7,915.3,191.8,915,207.3z M910.9,238c-0.6,6.9-4.9,10.3-12.7,10.2c-1.3,0-2.4-1.2-2.3-2.5c0.4-5.6,4.4-9.1,12.1-10.3
			C909.7,235.1,911.1,236.4,910.9,238z M889.5,227.5c4.8-5.6,9.9-8.6,16.4-8c1.7,0.2,3,1.8,2.6,3.5c-1.6,6.5-6,9.2-12,9.9
			c-1,0.1-1.8,0.6-2.4,1.4C886.1,246.1,881.3,240.5,889.5,227.5z M864.9,215.9c8-0.3,12.6,3.1,13.8,10.2c0.3,1.6-1.1,2.9-2.6,2.8
			c-8.8-1-12.5-5-13-10.8C863,216.9,863.8,215.9,864.9,215.9z M856.8,237.8c0-1,0.9-1.7,1.9-1.6c7.2,0.9,10.8,4.9,11.9,11.2
			c0.3,1.4-0.9,2.7-2.4,2.6C860.3,249.3,856.4,245.3,856.8,237.8z M960.5,259.5c-60.6-3.6-115.6,16.5-167.3,50.7c0,0-0.1,0-0.1,0
			c-13.9,3-25.9,3-36,0c0,0-0.1,0-0.1-0.1c-39.3-26.3-46.1-67.4-10-128.1c0-0.1,0.1-0.1,0-0.2c-1.2-11.5,5.5-26.3,17.5-43.4
			c0.3-0.4,0.9,0,0.7,0.4c-6.3,13.7-10.7,28.1-11.6,43.5c0,0.1,0,0.1-0.1,0.2c-25.7,40.5-27.9,103.9,6,118.9c6,3,15.1,3.6,28.9,1
			c0,0,0.1,0,0.2-0.1C825.6,277.5,877.5,251.5,960.5,259.5z M855.7,182.5c-4,7.9-10.9,9.2-20.4,6c-1.6-0.5-2.3-2.7-1.3-4.1
			c3.8-5.6,10-7.5,19.6-5.8C855.3,178.9,856.5,181,855.7,182.5z M871.4,157.8c-8.1-0.8-13-4.3-14.7-10.3c-0.7-2.2,1-4.5,3.3-4.5
			c9,0,13.8,3.7,15.4,10.2C876,155.7,873.9,158.1,871.4,157.8z M872.1,131.5c-2.8-0.9-5.3-2.8-7-5.2c-4.5-6.4-1.3-7.5,7.4-4.8
			c3.5,1.1,6.4,3.8,7.5,7.4C881.2,133.1,878,133.5,872.1,131.5z M884,114.5c-0.4,2.2-2.1,3.9-4.3,4.3c-5.3,1-7.6-0.5-6-5.1
			c0.9-2.5,3.2-4.2,5.8-4.3C883.5,109.4,884.6,111.4,884,114.5z M897,160c-4,3.1-7.1,4.4-8.7,3.1c-1.5-1.2-1.7-4.7-0.3-11.1
			c-4.2-8.8-1.8-10.5,9-3C903.3,153.8,903.3,157.5,897,160z M896.9,132.6c-1-0.6-1.8-1.4-2.4-2.3c-5.2-7.6-2-9.3,8.4-6
			c1.8,0.6,3.5,1.7,4.6,3.3C911.5,133.1,904.7,137.3,896.9,132.6z M915.5,173.6c-1.7,1.4-4.3,0.6-4.8-1.6c-0.9-3.8-0.7-7,0.6-9.6
			c0.7-1.4,2.6-1.7,3.7-0.6C919.5,166.2,919.7,170.1,915.5,173.6z M926,159c-2.3-2.3-4.2-4.3-5.6-6c-1.5-1.9-1.6-4.6-0.1-6.6
			c8.4-11.3,10.3-6.2,11.5,4C940.5,170.5,934.7,173.2,926,159z M948.8,96.6c-1.1,1.1-1.9,2.5-2.4,4.1c-1.6,5.6-9.9,7-6.9-6.8
			c0.3-1.2,0.8-2.3,1.5-3.3C952,76.3,962.5,82.8,948.8,96.6z M968.9,143.3c-0.8,7.3-4.1,5.9-9.8-4.3c-0.7-1.3-1.2-2.7-1.3-4.1
			c-1.1-10.8,2.2-13.3,6.8-7.5C968.1,131.8,969.5,137.6,968.9,143.3z M968.8,73.5c0.1-0.3,0.2-0.6,0.3-0.9
			c5.3-10.7,11.9-9.9,9.1,4.1c-0.2,0.9-0.5,1.9-0.9,2.7C972.8,88.1,964.9,85,968.8,73.5z M974.9,121.9c-1.3-1.2-2.3-2.8-2.7-4.5
			c-2-7.3-0.8-9.7,3.9-7c4.2,2.5,7,7,7,11.9C983.1,127.2,980.4,127,974.9,121.9z M983.2,166.3c-0.1-0.2-0.3-0.4-0.4-0.5
			c-4.3-7.3,6.2-12.6,9.2-3.7C996.4,176.7,993.3,177.8,983.2,166.3z M994.8,146.7c-2.1,2.3-3.8,1.1-5.1-3.7
			c-0.6-2.1-0.5-4.4,0.4-6.4c1.3-3.1,2.9-3.5,4.9-1.1C997.6,138.8,997.6,143.6,994.8,146.7z M998,120c-6.5-8.5,2.5-12.5,7-4
			C1009.5,123.5,1004.5,127.5,998,120z M1012.1,167.1c-0.1-0.1-0.1-0.1-0.1-0.2l-4.4-6.2c-0.4-0.5-0.6-1-0.7-1.7
			c-1.3-9.1,1.6-10.3,4.9-1.7c0.1,0.4,0.4,0.8,0.6,1.1l4.5,5.4c0.1,0.1,0.2,0.2,0.2,0.3C1024.4,174.5,1017.8,176.6,1012.1,167.1z
			 M1021.5,116c-1.9,0-3.5-1.8-3.5-4c0-2.2,1.6-4,3.5-4s3.5,1.8,3.5,4C1025,114.2,1023.4,116,1021.5,116z M1016.1,79.5
			c-1.8-1.2-3.3-2.8-4-4.8c-2-5.1,1.3-8.2,6.3-6c2.9,1.3,5,3.9,6,6.9C1026.8,83.5,1024,84.8,1016.1,79.5z M1032.8,146.9
			c-1.9-1.3-3.6-2.9-4.8-4.9c-4.4-7.1-1.9-8,6.4-3.6c1.9,1,3.5,2.6,4.5,4.5C1043.1,150.9,1041,152.3,1032.8,146.9z M1064.5,130
			c0,0.1-0.2,0.2-0.2,0c-1.7-4.4-3.4-8-5.5-10.3c-0.4-0.5-1.1-0.7-1.8-0.6c-1.2,0.2-2.3,0.3-3.4,0.2c-1.5-0.1-2.8-1.2-3.1-2.7
			c-1.6-7.8-3.7-14.7-6.5-20.6c0-0.1,0-0.1,0.1-0.1c4.7,0.9,9.4,3.5,13.9,7.9c1.9,1.8,2.8,4.5,2.4,7.1l-0.5,3.9
			c2.2,1.3,3.7,3.1,4.3,5.5c0.1,0.5,0.2,1,0.2,1.4V130z M1064.5,85c-1.9,0-3.5-1.6-3.5-3.5c0-1.9,1.6-3.5,3.5-3.5s3.5,1.6,3.5,3.5
			C1068,83.4,1066.4,85,1064.5,85z M1072.8,104.9c-1.7-1.8-2.9-4.2-3.2-6.7c-0.6-4.7,0.4-6.5,3.8-4.4c2.2,1.3,3.6,3.6,3.9,6.1
			C1078.3,107.4,1076.8,109.1,1072.8,104.9z M1083.7,71.8c-0.5,0.8-1.4,1.1-2.3,0.9c-1.4-0.4-2.4-1.2-3-2.3
			c-0.4-0.7-0.2-1.7,0.4-2.3c6.2-6.6,12.5-11.6,18.9-15c0.1,0,0.1,0,0.1,0.1C1091.7,60.4,1086.9,66.6,1083.7,71.8z"/>
		<path class="st0" d="M39.3,222.5c-2,0.7-3.5,2-4.8,3.8c-0.3,0.5-0.4,1.1-0.1,1.7c0.9,1.5,2.4,2.5,4.3,2.9c0.8,0.2,1.5-0.3,1.8-1
			c0.9-2,1.2-4.1,0.8-6.1C41.3,222.8,40.2,222.1,39.3,222.5z"/>
		<path class="st0" d="M102.3,295.1c-0.5,0.3-1.2,0.3-1.7-0.1c-2.4-1.8-2.9-6.2-1-13.6l11.4-4l0,0
			C111.6,286.4,108.2,291.8,102.3,295.1z"/>
		<path class="st0" d="M40.6,229.8c-0.3,0.7-1,1.1-1.8,1c-2-0.4-3.5-1.3-4.3-2.9c-0.3-0.5-0.3-1.2,0.1-1.7c1.3-1.8,2.8-3,4.8-3.8
			c0.9-0.4,2,0.3,2.1,1.2C41.7,225.8,41.4,227.8,40.6,229.8z"/>
		<path class="st0" d="M40.6,229.8c-0.3,0.7-1,1.1-1.8,1c-2-0.4-3.5-1.3-4.3-2.9c-0.3-0.5-0.3-1.2,0.1-1.7c1.3-1.8,2.8-3,4.8-3.8
			c0.9-0.4,2,0.3,2.1,1.2C41.7,225.8,41.4,227.8,40.6,229.8z"/>
	</g>
</g>
<g id="Layer_2" class="st1">
</g>
</svg>
