<?xml version="1.0" encoding="utf-8"?>
<!-- Generator: Adobe Illustrator 26.3.1, SVG Export Plug-In . SVG Version: 6.00 Build 0)  -->
<svg version="1.1" xmlns="http://www.w3.org/2000/svg" xmlns:xlink="http://www.w3.org/1999/xlink" x="0px" y="0px"
	 viewBox="0 0 1108 675" style="enable-background:new 0 0 1108 675;" xml:space="preserve">
<style type="text/css">
	.st0{fill:#A8AAAD;}
	.st1{fill:#FFFFFF;}
	.st2{display:none;}
</style>
<g id="Layer_1">
	<g>
		<path class="st0" d="M422.5,227.5c-16.2-17.3-39.8-31.5-73-42c-34.6-7.8-67.3-6.3-98,5c-20.2,9.2-69.5,42.5-118,75
			c-22.6,14.6-45,21.4-67,19c-11.5-3.8-20.3-11.9-24-28.5c-1.7-14.3-1.6-27.8,1.3-40c5.4-15.3,7.4-28.4,0-35.5
			c-3.4-1.9-8.1-1.9-14.2,0c-15.1,5.1-23.1,23.1-28,47C-0.3,241,0,253.3,1.5,265c6,34.3,25.6,57.1,61,66.5c9.1,1.9,20.5,1.9,34.3,0
			c33.6-6.5,68.3-23.1,103.7-47c30.4-26.2,69.4-40.9,120-40c15.9,4.4,28,11.4,35,22c-15.6,11.3-26.1,26.4-33,44c0,85-62,141-129,146
			c-6.2,4.8-10.3,20-14,37c32-4,17,11-6,15c-9.3,21.8-29.2,44.7-53,68c-1.7,4.4-1.6,10.2,0,17c3.3,5.4,10.3,2.7,22-11
			c-3,12-28.8,18.7-26,35c2.4,10.7,6.1,15.4,11,14c2.2,0.2,19.1-16.9,42-41c-17.3,19-33.8,37.2-38,43c1.9,10.6,8.8,11.9,18,9
			c36.3-28.3,58.2-63.6,65-106c11.4-12.2,24-15.6,38-8c-2.8,26.7-16.8,62.5-38,104c-2,27,28,31,36,10c-2,16.9-12.5,20.9-33,10
			c-5.2,14.1,5,27,31,21c12.3-11.2,18.4-21.9,19-32c2-8.7,2.5-17.8,2-27c13-31,17.3-60.6,45-69c74.4-0.9,130.4-29.8,163-94
			c28.1-44.8,68.2-73,122-82c74.6,8.6,134,2.2,171.5-25.6c8.4-6.2,15.6-13.5,21.7-21.9c22.7,18.6,44.5,26.8,64.7,12.5
			c64-53,93-64,192-45c25.8,1.6,43-21,32-49c-49-57-173-75-227-25c25-25.7,60.5-39.2,108-39c-25.9-17.7-27.6-40.8-11-68
			c-10.7,33.8-4.7,59.2,30,70c29.7,1.4,55.9,9.8,80,22c19.6,1.5,33.7-3.9,37-23c-26,24-54.3,19.2-62-5c12.4,20.6,33,22,52,7
			c-3.2-3.9-4.2-10.6-3-20c5,21,29,18,20-7c-9.1-10.1-10.9-23.3-4-40c-2.2-9.3-5.6-18.9-12-29c11.4-17.4,17.4-30.7,10-34
			c-12.5-5.3-23.5-0.5-34,8c-5.6-4.5-11.8-6.1-19-3c12-14,12.6-45.8-3-53c-5.7-2.5-11.6-1.6-17.5,0c-10.9,13.7-50.4,49.4-82.5,48
			c-26.8,2.5-52.6-2.1-78-10c-37.9-6.8-72.2,7.5-104,37c-86,61.9-180.1,109.3-281,145L422.5,227.5z"/>
		<path class="st0" d="M99.6,281.4c-1.8,7.4-1.4,11.8,1,13.6c0.5,0.4,1.1,0.4,1.7,0.1c5.9-3.3,9.3-8.7,8.8-17.7"/>
		<path class="st0" d="M39.3,222.5c-1.9,0.7-3.6,2-4.8,3.7c-0.3,0.5-0.4,1.2-0.1,1.7c0.9,1.5,2.4,2.5,4.3,2.9c0.8,0.2,1.5-0.3,1.8-1
			c0.9-2,1.2-4.1,0.8-6.1C41.3,222.8,40.2,222.2,39.3,222.5z"/>
	</g>
	<g>
		<path class="st1" d="M43.7,216c-5.2-0.8-10.4-0.1-15.5,2.2c-0.5,0.2-0.9,0.5-1.2,0.9c-6.5,8.2-5.6,12.8,3.4,13.4
			c0.1,0,0.2,0,0.2,0h10.9"/>
		<path class="st1" d="M41.5,236.8c-3.3-0.8-6.8-0.9-10.6-0.3c-0.3,0-0.6,0.1-0.8,0.2c-5.6,2.5-4.6,5.8,1.9,9.6
			c0.3,0.2,0.6,0.3,0.9,0.4c3.4,0.7,6.3,0.6,8.6-0.1"/>
		<path class="st1" d="M46.6,267.7c-3.5-0.3-5,8.1-4.6,23.8c0,0.3,0.1,0.6,0.2,0.9c2.7,6.4,6.7,8.3,11.6,7.6c0.1,0,0.3,0,0.4,0
			c18.5,1.3,19.2-12.4,0.2-9.5c-1.3,0.2-2.6-0.7-2.7-2.1c-0.6-5.5,0-9.4,1.6-11.7"/>
		<path class="st1" d="M90.7,283.9c-3,4.4-3.7,9-1.9,13.7c0.1,0.3,0.2,0.5,0.4,0.7c15.2,18.2,17.3,20,27.7-4.2
			c0-0.1,0.1-0.2,0.1-0.3c4.3-7,6.1-14.3,5.3-21.8C107.7,277,89.6,282.9,90.7,283.9z"/>
		<path class="st1" d="M469.7,373.4c26.5-10.8,64.4-14.7,109.7-14.2c0.7,0,0.7,1,0,1.1c-48,3.6-83.3,10.3-96.8,22.1
			c0,0-0.1,0.1-0.1,0.1c-48.8,84.2-120.6,130.8-214.4,141.5c-0.7,0.1-0.8-0.9-0.2-1.1c94.1-17.6,162.7-65.7,201.5-149.4
			C469.5,373.6,469.6,373.5,469.7,373.4z"/>
		<path class="st1" d="M764.5,138.5c-12,17.1-18.7,31.9-17.5,43.4c0,0.1,0,0.2-0.1,0.2c-36.1,60.7-29.2,101.8,10,128.1
			c0,0,0.1,0,0.1,0.1c10.1,3,22.1,3,36,0c0,0,0.1,0,0.1-0.1c51.7-34.1,106.7-54.3,167.3-50.7c-83-8-134.9,18-171.9,43
			c0,0-0.1,0-0.1,0.1c-13.8,2.6-23,1.9-28.9-1c-34-15-31.8-78.4-6.1-118.9c0-0.1,0.1-0.1,0.1-0.2c0.9-15.4,5.3-29.8,11.7-43.5
			C765.4,138.4,764.8,138.1,764.5,138.5z"/>
		<path class="st1" d="M1027.2,223.7c19.5,29.6,5,42.1-32.7,42.8c37.9,7.1,56-9,40-37C1031.4,225.6,1029.1,224.2,1027.2,223.7z"/>
		<path class="st1" d="M1057,236c19.5,22.5,3,36.4-25,34C1057.6,267.9,1068.9,258.2,1057,236z"/>
		<path class="st1" d="M1064,265c17.9-1.8,25.3-9.4,16.3-25.8C1083.9,252.5,1076,259.9,1064,265z"/>
		<path class="st1" d="M150.7,253.9c1.2,26.2-4.1,29.8-16.1,10.8L150.7,253.9z"/>
		<path class="st1" d="M162.5,259.6c12.1,0.9,11.9,9,2.1,22.7c-0.1,0.1-0.3,0.3-0.4,0.3c-3.9,1.1-6.5,0.1-7.6-3.6
			c-0.1-0.3,0-0.6,0.3-0.8c4.7-3.6,6.3-9.5,4.8-17.7C161.6,260,162,259.5,162.5,259.6z"/>
		<path class="st1" d="M188.9,247.1c5.1,12.3,20.7,5.7,18.6-6.2c-0.2-1.1-1.3-1.8-2.4-1.7c-6,1-11.1,3.5-15.1,7.8L188.9,247.1z"/>
		<path class="st1" d="M207.7,216.3c-2.3,4.2-2.5,8.3-0.8,12.3c0.2,0.4-0.2,0.8-0.6,0.6c-3.6-1.7-8.7-0.7-14.7,1.8
			c0,0-0.1,0-0.1,0.1c-2.7,2.1-3.4,5.8-2.8,10.4c0.1,0.4-0.4,0.7-0.8,0.5c-2.7-1.9-5.2-4.6-7.3-8
			C189.7,227.5,198.7,221.6,207.7,216.3z"/>
		<path class="st1" d="M239.3,196.9c0.2,5.1,6.8,7.9,17.7,9.2c0.6,0.1,1.1,0.3,1.6,0.6c6.1,4.1,1.2,11.9-8.9,21.5
			c-0.9,0.8-2.1,1.1-3.3,0.8c-10.5-2.7-18-10.5-22.6-22.8C228.5,202.6,233.7,199.5,239.3,196.9z"/>
		<path class="st1" d="M274.5,207.1c1.3-0.6,3.2-0.9,5.7-1.1c1.1,0,2,0.7,2.3,1.7c0.7,3,0.2,5.2-1.6,6.6c-0.5,0.5-1.3,0.6-2,0.4
			c-3.2-0.8-5.2-2.5-5.8-5.1C272.9,208.6,273.5,207.5,274.5,207.1z"/>
		<path class="st1" d="M316.2,181.7c3.3,14.6-0.9,16.4-10.2,9.8c-1-0.7-2.5-0.4-3.1,0.7c-7.8,13.3-15.8,9.2-23.8-7.9
			c-0.3-0.5,0.1-1.2,0.7-1.3c11.6-2,23.4-2.7,35.4-2.2C315.6,180.8,316.1,181.2,316.2,181.7z"/>
		<path class="st1" d="M330.8,196.6c4.1,14-2.1,19.2-15,18.6c-0.8,0-1.1-1.1-0.5-1.5c6.6-4.8,11.3-10.5,13.8-17.1
			C329.5,195.7,330.6,195.8,330.8,196.6z"/>
		<path class="st1" d="M366.8,191.6c0,14.6-2.4,24.2-10.3,22.9c-11.1-1.1-9.4-11.9-1.7-27.3C358.7,188.5,362.7,190,366.8,191.6z"/>
		<path class="st1" d="M364.6,230.9c1.1,0.6,2.4,1.6,3.9,3.1c1,1,1,2.5,0.2,3.6c-1.6,2-3.3,2.9-5.2,2.8c-1-0.1-1.8-0.7-2.2-1.5
			c-1.3-2.7-1.4-5.1,0-7.2C361.9,230.6,363.4,230.2,364.6,230.9z"/>
		<path class="st1" d="M395.8,206c-1.2,8.7-7.2,13.2-16.7,14.6c-1.8,0.3-3.1-1.6-2.4-3.2c3.9-8.4,5.8-15.4,4.2-19.6
			C386.1,200.1,391.1,202.8,395.8,206z"/>
		<path class="st1" d="M376.9,281.9c-3.6-2.2-6.2-7.9-6.9-20.4c0-0.6,0.3-1.1,0.8-1.3c2.9-1,5.8-1.5,8.4-1.4c0.9,0,1.4,0.9,1.1,1.7
			c-3.5,9.4-4.1,15.9-1.8,19.6C379.3,281.3,378,282.6,376.9,281.9z"/>
		<path class="st1" d="M387.7,255.6c2.5,11,6.5,19,12.6,23c0.5,0.3,1.1,0.4,1.7,0.2c2.7-1,3.6-5.3,2.7-12.7c0-0.4-0.2-0.7-0.4-1
			c-4.5-5.6-9.1-9.5-13.6-11.7C389.1,252.6,387.4,254,387.7,255.6z"/>
		<path class="st1" d="M362.5,292.6c18.3,6.2,22.2,10.9,11.7,14.1c-0.8,0.2-1.6,0.2-2.4,0c-6.8-2.3-11.2-2.2-11.6,1.9
			c-0.1,0.8-0.4,1.6-0.9,2.3c-12.4,14.1-13.4-3-0.8-17.1C359.5,292.5,361.1,292.1,362.5,292.6z"/>
		<path class="st1" d="M400.3,293.7c2.6,1.4,5.8,5.2,9.8,12.7c-3.8,5.1-7.8,5.9-11.9,2.5C395.4,301.4,395.8,296.2,400.3,293.7z"/>
		<path class="st1" d="M359.4,335.2c1.6,1.6,3.5,4.1,5.8,7.8c0.6,1,0.6,2.3-0.2,3.2c-2.2,2.6-4.7,2.8-7.6,0.7
			c-0.4-0.3-0.6-0.7-0.8-1.1c-1.7-4-2.3-7.2-1.7-9.5C355.4,334.4,358,333.8,359.4,335.2z"/>
		<path class="st1" d="M339.6,332.7c-10.1-3.2-15.4,2.7-16.5,16.7c-0.1,1,0.2,2.1,0.8,2.9c6.7,9.7,14.3,14.3,23.1,11.7
			c5.1-1,8.5-2.5,4.3-5.9c-1-0.8-2.3-1.2-3.5-1c-13.3,2-14.6-4.4-5.8-17.7C343.5,337,342.4,333.6,339.6,332.7z"/>
		<path class="st1" d="M308.9,375.3c24.4,7.2,16.8,17,6.5,36.1c-0.2,0.4-0.6,0.7-1,0.8c-14.8,3.3-14-4.1-4.1-17.8
			c0.3-0.4,0.3-1.1,0-1.5c-2.1-2.7-5-3.9-8.5-4"/>
		<path class="st1" d="M296,418.1c0.2,0.2,0,0.9-0.1,1.1c-0.1,0.5-0.1,1-0.2,1.5c-0.3,1.3-0.7,2.6-1.2,3.9c-0.9,1.8-2.2,3.4-3.8,4.6
			c-1.8,1.3-3.9,2.1-6.1,2.6c-3.6,0.8-7.3,0.7-11,0.3c-0.3,0-0.5,0-0.5-0.3c0-0.2,0.1-0.5,0.2-0.7c0.1-0.3,0.1-0.6,0.2-0.9
			c0.3-1.1,0.6-2.1,1.1-3.2c0.9-1.9,2.1-3.6,3.6-4.9c1.6-1.4,3.5-2.4,5.5-3.1c3.8-1.3,8-1.4,11.9-1.1C295.8,418,295.9,418,296,418.1
			z"/>
		<path class="st1" d="M282.4,467c0,0.4,0.3,0.8,1.1,1.2c1.1,0.6,2.3,1.1,3.4,1.6c2.2,0.9,4.5,1.7,6.8,1.5c3.9-0.4,5.6-3.8,6.1-7.4
			c0.1-0.8,0.2-1.7,0.2-2.6c0-1.6-0.3-1.4-1.8-1.1c-4,0.8-7.8,2.1-11.4,4C285.7,464.8,282.4,465.7,282.4,467z"/>
		<path class="st1" d="M302.8,442.5c-0.4-0.2-1.5,0.3-1.8,0.4c-0.8,0.2-1.7,0.5-2.5,0.7c-1.7,0.4-3.5,0.8-5.2,1.2
			c-3.4,0.7-6.9,1.4-10.3,2.1c-2.5,0.5-5.1,0.9-7.5,1.8c-1.2,0.4-2.5,1-3.6,1.7c-0.5,0.3-1,0.7-1.5,1.2c-0.5,0.5-0.3,0.9-0.2,1.6
			c0.3,1.4,0.6,2.9,1.1,4.3c0.4,1.1,1.3,3.3,2.9,2.6c1.5-1.5,3.6-2.4,5.5-3.3c2.7-1.2,5.5-2.2,8.2-3.2c2.2-0.8,4.4-1.6,6.5-2.6
			c2.2-1,4.5-2.1,6.4-3.6c1.4-1.2,2.4-2.9,2.2-4.7C303,442.6,302.9,442.5,302.8,442.5z"/>
		<path class="st1" d="M275.2,486.2C275.2,486.2,275.2,486.1,275.2,486.2c0.3-0.2,0.7,0,0.9,0c0.6,0.1,1.2,0.3,1.8,0.5
			c1,0.3,2.1,0.8,3,1.4c3.6,2.4,3.7,6.5,3.3,10.4c-0.1,1.1-3.7-0.6-4.5-1c-1.2-0.6-2.4-1.5-3.2-2.6c-0.9-1.1-1.4-2.5-1.7-3.9
			c-0.1-0.8-0.2-1.6-0.2-2.5c0-0.8,0.1-1.6,0.5-2.2C275.1,486.3,275.1,486.2,275.2,486.2z"/>
		<path class="st1" d="M250.9,492.6C250.9,492.5,250.9,492.5,250.9,492.6c0.2-0.4,0.7-0.4,1.1-0.5c0.8-0.2,1.6-0.4,2.3-0.5
			c1.4-0.2,2.8-0.3,4.2-0.1c5.5,0.7,7.9,5.3,9.5,10c0.5,1.3-4.6,1.4-5.6,1.4c-1.8,0-3.5-0.4-5.1-1.1c-1.6-0.8-3-2-4.1-3.5
			c-0.6-0.9-1.2-1.7-1.7-2.7c-0.4-0.9-0.8-1.8-0.7-2.8C250.8,492.7,250.8,492.6,250.9,492.6z"/>
		<path class="st1" d="M219.8,501.2c0,0,0.1,0,0.1,0c0.4,0.1,0.5,0.6,0.6,0.9c0.4,0.7,0.8,1.5,1.1,2.3c0.6,1.4,1,2.8,1.1,4.3
			c0.6,5.8-3.4,9.4-7.8,12.3c-1.3,0.8-2.6-4.3-2.8-5.4c-0.4-1.8-0.5-3.7-0.1-5.5c0.4-1.9,1.3-3.6,2.5-5c0.7-0.8,1.5-1.7,2.3-2.4
			c0.8-0.7,1.6-1.3,2.7-1.4C219.6,501.2,219.7,501.2,219.8,501.2z"/>
		<path class="st1" d="M199.9,464.2c15.6-12.5,22.3-8.6,7.8,4.1c-0.2,0.2-0.3,0.4-0.3,0.6c-0.2,4.1,2.2,5.5,6.9,4.6
			c0.1,0,0.1,0,0.2-0.1c9.7-3.8,15.7-7.4,14.4-10.4c-0.3-0.6,0.3-1.2,1-1.1c6.6,1,12.1-0.4,16.5-4.4c0.5-0.5,1.3-0.2,1.5,0.5
			c1,5.3,0.1,9.6-4.6,12.1c-0.4,0.2-0.6,0.7-0.3,1.2c7.1,14.2-3.3,18.9-11.1,6.6c-0.2-0.3-0.5-0.4-0.8-0.4l-14.7,0.9
			c-0.5,0-0.8,0.4-0.8,0.9c-0.3,18.1-10.8,18.9-9.5-0.4c0-0.2-0.1-0.5-0.2-0.6c-2.9-3.2-4.9-7.7-6.2-13.2
			C199.5,464.7,199.7,464.4,199.9,464.2z"/>
		<path class="st1" d="M192.4,541.3C192.4,541.3,192.4,541.3,192.4,541.3c0.2-0.1,0.4,0.2,0.6,0.3c0.4,0.2,0.7,0.5,1,0.8
			c0.6,0.5,1.1,1,1.5,1.7c1.7,2.5,0.7,5.1-0.6,7.5c-0.4,0.7-2.2-1.3-2.6-1.8c-0.6-0.7-1.1-1.6-1.4-2.5c-0.3-0.9-0.3-1.9-0.1-2.9
			c0.1-0.6,0.3-1.1,0.5-1.6c0.2-0.5,0.4-1,0.9-1.3C192.3,541.3,192.3,541.3,192.4,541.3z"/>
		<path class="st1" d="M174.4,528.6c3.8-4.6,6.2-6.7,5.6-4.1c-0.2,1.1,1.1,1.8,1.9,1c10.3-9.7,11.8-8.1,2.2,7.4c0,0-0.1,0.1-0.1,0.1
			c-4.7,6.1-7.9,4.5-9.8-3.5C174,529.2,174.1,528.8,174.4,528.6z"/>
		<path class="st1" d="M321.7,487.9c8.5,3.5,15.4,1,21-6.5c1.1-1.5,0.1-3.6-1.7-3.6c-10.8-0.2-18.1,1.8-20.5,7.1
			C320,486.1,320.6,487.4,321.7,487.9z"/>
		<path class="st1" d="M362.1,472.8c8.3-1.3,15-6.2,20.4-14.2c0.7-1-0.2-2.3-1.4-2.1c-11.1,2-17.9,6.8-20.5,14.5
			C360.2,471.9,361.1,472.9,362.1,472.8z"/>
		<path class="st1" d="M351.2,447c18.6-15.5,20.5-13,5.7,7.4c-0.9,1.3-2.4,2.1-4,2.1c-32.7,1.2-36.9-4.4-4.4-8.3
			C349.5,448.1,350.4,447.7,351.2,447z"/>
		<path class="st1" d="M327.8,436.9c4.8-11.3,13.6-12.8,25.6-6.7c0.9,0.4,1.1,1.7,0.3,2.3c-3.7,3-12.1,5.1-24.4,6.4
			C328.2,438.9,327.4,437.8,327.8,436.9z"/>
		<path class="st1" d="M399.1,426.7c0.8,12.8-2,17-7.4,14.7c-0.5-0.2-0.8-0.6-1-1.1c-2.6-9.5,0-14.1,6.5-15.1
			C398.2,425,399.1,425.8,399.1,426.7z"/>
		<path class="st1" d="M399.2,408.3c7.9,10.9,15.6,11.3,23.1-0.1c0.8-1.2-0.2-2.7-1.6-2.5c-6.8,1.2-13.4,1.2-19.9,0.1
			C399.4,405.5,398.4,407.2,399.2,408.3z"/>
		<path class="st1" d="M401.1,392.1c4.6-10.9,12.5-11,22.2-5.1c1,0.6,1.4,1.9,0.8,2.9c-4.1,7.6-11.5,9-21.8,5.1
			C401.2,394.5,400.6,393.2,401.1,392.1z"/>
		<path class="st1" d="M377.9,405.6c-4.9,15-11.5,20.3-20.6,11.7c-0.7-0.7-0.6-1.9,0.2-2.4c5.8-4.3,11.9-8,18.2-11.2
			C376.9,403,378.3,404.3,377.9,405.6z"/>
		<path class="st1" d="M354,399.7c4-13.2,13.2-16.7,26.7-12c1.1,0.4,1.1,2,0,2.3c-8.3,2.7-16.6,6.4-24.9,11.1
			C354.8,401.7,353.7,400.8,354,399.7z"/>
		<path class="st1" d="M371.2,370.5c9.2-10.8,15.4-10.7,18.6,0.4c0.2,0.7-0.1,1.4-0.6,1.8c-6,4.6-11.8,4-17.6,0.3
			C370.7,372.5,370.5,371.3,371.2,370.5z"/>
		<path class="st1" d="M402.9,333.1c1.4-3.4,1.1-5.6-2.8-5.2c-0.6,0.1-1.2,0.2-1.8,0.4c-17.6,7.3-22.7,13.1-19.3,17.7
			c9.9,10.7,19.5,10.8,28.8,3c0.4-0.4,0.8-0.8,1.1-1.3c3.9-6,3.9-8.8-2.4-6.4c-0.2,0.1-0.4,0.1-0.5,0.2c-18.7,5.2-20.5,3.4-5.6-5.6
			C401.5,335.3,402.4,334.3,402.9,333.1z"/>
		<path class="st1" d="M438.4,344.4c-20.5,11.3-13.3,21.3,6.7,30.5c1.6,0.7,3.3-1,2.4-2.6c-4.9-9.2-8.6-17.7-6.4-25.7
			C441.5,344.9,439.8,343.6,438.4,344.4z"/>
		<path class="st1" d="M453.7,344.5c14.5,4.5,14,13.3,1.3,21c-0.5,0.3-1.1,0.1-1.3-0.5c-2.2-5.9-2.8-13.6-1.9-19.3
			C451.8,344.8,452.8,344.2,453.7,344.5z"/>
		<path class="st1" d="M463,324c3.1,3.1,4.8,6.1,5,9c-1.1,5.8-0.6,10,1.5,12.6c0.8,1,2.1,1.2,3.2,0.5c3.4-2.2,3.6-6.3-1.4-13.5
			c-0.2-0.3-0.3-0.6-0.2-1c1.3-9.1-1.9-11.3-7.7-9.2C462.7,322.7,462.6,323.5,463,324z"/>
		<path class="st1" d="M480.9,307.9c13.7,4.6,13.6,13.4,1.4,25.9c-0.4,0.4-1.1,0.1-1-0.5c1.1-8.7,0.5-16.7-2.1-23.6
			C478.7,308.6,479.8,307.5,480.9,307.9z"/>
		<path class="st1" d="M430.8,301.4c16.9,21.8,25.9,17.2,26.2-7.9c0-1.4-2.1-2.1-2.6-0.8c-3.4,8.9-12.1,11.5-22.6,7.3
			C431,299.7,430.3,300.7,430.8,301.4z"/>
		<path class="st1" d="M423.9,295.5c-1.6-15.7,6.7-18,21.2-12.3c1.5,0.6,1.3,2.8-0.3,3.1c-7.9,1.4-14.3,4.1-18.4,9.9
			C425.7,297.2,424.1,296.7,423.9,295.5z"/>
		<path class="st1" d="M423.9,242.7c-14,10.6-9.4,19.6,11,27.2c0.9,0.3,1.6-0.8,0.9-1.5c-5.3-5.3-7.7-11.8-6.3-19.9
			c1.2-7.3-1.4-6.8-2.9-6.7C425.7,241.8,424.7,242.1,423.9,242.7z"/>
		<path class="st1" d="M435.3,236.4c11,5.7,16.3,14.2,11.7,23.6c0,0,0,0,0,0c-5.6,2.7-9.5-5.1-10.5-12.5c-0.9-7-4.2-5.6-5.1-7.8
			C430.4,237.4,433.1,235.2,435.3,236.4z"/>
		<path class="st1" d="M505.3,317.1c6.6,1.3,16.1-0.7,21.9-5.3c1.9-1.5,0.6-4.6-1.8-4.2c-5.2,0.9-11.7,0.2-18.4-0.7
			C500.4,305.9,498.7,315.8,505.3,317.1z"/>
		<path class="st1" d="M507.7,295.2c5.3-9.8,12.2-9.2,20.3-1c1.9,1.9-1.6,7.7-2.2,5.1c-0.8-3.6-16-3-15.8-0.4
			C510.1,300.9,506.8,296.9,507.7,295.2z"/>
		<path class="st1" d="M488.9,274c-13.7-5.1-2.3-24.5,8-7.9c0.9,1.4,3.1,1,3.5-0.6c0.6-2.6,0.5-7.2,0-13c-0.2-2.5-2.6-4.3-5.1-3.8
			c-13,2.6-20.2,10.4-19.5,25.4c0.1,1.3,0.4,2.5,1.1,3.6c4.7,7.7,9.1,7.6,13.5,1.6C491.7,277.4,491,274.8,488.9,274z"/>
		<path class="st1" d="M471.1,223.1c-0.3,22.3,7.2,25.2,6.5,6.4c0-0.5,0.4-0.9,0.9-0.8c21.2,3.5,30.6-7.1,7-8.8
			c-0.2,0-0.4,0-0.6,0.1c-3.5,1.1-8.2,1.3-13.2,2.5C471.3,222.5,471.1,222.7,471.1,223.1z"/>
		<path class="st1" d="M556.4,331.3c3.8,5.6,9,7.3,16.1,4.5c2.9-1.2,3-7.3,0-6.4c-4,1.2-9.1,0.8-14.9-0.7
			C556.3,328.4,555.6,330.3,556.4,331.3z"/>
		<path class="st1" d="M538.5,201.5c-0.1,11.6-12.6,17.3-19.9,7.8c-0.6-0.7-0.2-1.8,0.6-2.2l17.4-7
			C537.5,199.8,538.5,200.5,538.5,201.5z"/>
		<path class="st1" d="M515,232c18-13.4,29.2-12.5,5.9,4.4c-0.6,0.4-1,0.9-1.3,1.6c-1.5,3.3-2,6.8-1.4,10.6c0.1,0.5,0.4,0.9,0.7,1.2
			c18,14.6,0.9,15.5-5.7,1.6c-0.1-0.3-0.2-0.6-0.3-0.9C511.4,241.6,511.7,234.9,515,232z"/>
		<path class="st1" d="M593.8,331.4c5,6.2,22.6,3.4,8.5-3.1c-1.2-0.6-2-1.9-1.7-3.2c0.4-2.2,1.8-4.3,4.3-5.4
			c1.2-0.5,2.5-0.4,3.6,0.3c9.1,5.8,8.5,1.9,5.9-4c-0.8-1.8-2.7-2.9-4.7-2.7c-9,1.1-15.1,5.7-16.5,15.5
			C593,329.7,593.3,330.7,593.8,331.4z"/>
		<path class="st1" d="M540.9,293c0,13.7,8.1,15,10.4,3.5c0.3-1.7,1-3.2,1.9-4.6c8.9-13.2,1.4-18-10.4-4.1
			C541.6,289.2,540.9,291.1,540.9,293z"/>
		<path class="st1" d="M536.8,259.1c6.4-1.4,10.8-6.2,12.6-13.5c0.3-1.3-0.9-2.4-2.1-2.1c-6.8,1.8-10.9,6.8-12.4,13.7
			C534.6,258.4,535.7,259.4,536.8,259.1z"/>
		<path class="st1" d="M546,220.4c-5.6,1.9-7.4,6.7-6.5,13.4c0.2,1.6,2,2.5,3.4,1.6c4.9-3.1,7.1-7.5,5.8-13.6
			C548.4,220.7,547.1,220,546,220.4z"/>
		<path class="st1" d="M570.1,216.3c0.7,2.8-1,7.3-3.1,10.2c-1.4,1.9-4.3,1.2-4.6-1.1c-0.7-6,0.4-10,4.4-11
			C568.2,214,569.7,214.8,570.1,216.3z"/>
		<path class="st1" d="M581.5,219.8c-10.8-3.5-2-9.5,6.5-5.7c1.9,0.9,3.1,2.7,3.3,4.8c1,12.1,0.1,20-2.7,23.7
			c-1.4,1.8-4,2.1-5.8,0.7c-13-10.1-18-16-2.1-10.8c0.8,0.3,1.5,0.7,2.1,1.2c3.3,2.4,3.5-1.4,0.9-11.5
			C583.5,221.1,582.6,220.2,581.5,219.8z"/>
		<path class="st1" d="M571.1,186.7c3.5,11.4,11.6,7.8,10.4-4.1c-0.1-0.9-1-1.4-1.8-1.1l-7.9,3.5C571.2,185.4,570.9,186,571.1,186.7
			z"/>
		<path class="st1" d="M595.1,179.2c8.5,6.1,7.1,11.7-4.1,19.1c-1.1,0.7-2.5-0.4-2.1-1.6c2-5.6,2.9-10.5,3.4-16.2
			C592.4,179.1,594,178.4,595.1,179.2z"/>
		<path class="st1" d="M567.2,280.8c-10.4,16-10.1,27.2-0.1,34.6c1.2,0.9,2.8-0.1,2.5-1.6c-2-10.3-2.1-21.2-0.7-32.4
			C569.1,280.5,567.8,280,567.2,280.8z"/>
		<path class="st1" d="M582.1,290.1c1.2,14.4,12,14,13.1-1c0.1-0.8,0.2-1.6,0.4-2.4c4-16.9-1.2-15.2-11.2-3.5
			C582.7,285.1,581.9,287.6,582.1,290.1z"/>
		<path class="st1" d="M607,264.2c6.8,5.5,10.6,13,11,23c0.1,2.3-2.4,3.9-4.4,2.8c-5.2-2.8-8.3-10.9-9.3-24.3
			C604.1,264.2,605.8,263.2,607,264.2z"/>
		<ellipse transform="matrix(0.3903 -0.9207 0.9207 0.3903 86.4592 815.5737)" class="st1" cx="659" cy="342.5" rx="3.5" ry="3"/>
		<ellipse transform="matrix(0.866 -0.5 0.5 0.866 -76.6154 366.9676)" class="st1" cx="646.5" cy="326.5" rx="4.5" ry="6.4"/>
		<ellipse class="st1" cx="641" cy="302" rx="7.5" ry="4.5"/>
		<path class="st1" d="M718.7,337.4c2.4,2.9,6.1,3.7,10.6,3c3.1-0.5,3.6-4.6,0.7-5.8c-2.1-0.9-5.1-1.5-8.6-2
			C718.7,332.2,716.9,335.3,718.7,337.4z"/>
		<path class="st1" d="M679.8,340.8c4.4-4.4,10.6-8,19.2-11.4c2.5-1,5.1,3.1,3.1,5c-5.5,5.2-11.8,8.9-19.8,10.5
			C680.3,345.2,678.3,342.2,679.8,340.8z"/>
		<path class="st1" d="M735.4,314.2c-2.1-7.3-0.5-9,6.8-1.9c0.5,0.5,0.9,1.2,1.1,1.8c0.6,2,0.7,3.7,0.4,5c-0.6,2.5-3.4,3.8-5.8,3.1
			c-3.8-1.1-5.3-2.7-3.2-5.1C735.5,316.4,735.7,315.2,735.4,314.2z"/>
		<path class="st1" d="M703.2,316.6c-0.9,0.1-1.5-0.8-1.1-1.5c3.9-7,7.4-11,9.6-7.3c1.6,1.5,2.6,3.2,3.1,5c0.6,2.2-1.4,4.4-3.7,3.9
			C708.7,316.1,706,316.1,703.2,316.6z"/>
		<path class="st1" d="M663,313c0.9,1.6,2.4,3.1,4.6,4.3c1.8,1.1,4.2,0,4.6-2.1c1.1-5.3-1.4-7.3-7.5-6
			C663,309.7,662.1,311.5,663,313z"/>
		<path class="st1" d="M675.1,289.9c0.5-15,2.6-20.3,7.8-5.3c0.7,1.9,2.6,3.2,4.6,2.9c5.5-0.6,3.2,1,1.6,7.9c-0.3,1.4-1,2.6-1.9,3.7
			c-7.2,8-6.2,8.3-11.5-5.3C675.2,292.6,675,291.3,675.1,289.9z"/>
		<path class="st1" d="M710.5,270.4c5.6,2.7,7.7,6.9,6.1,12.7c-0.4,1.5-1.8,2.6-3.3,2.4c-3.4-0.4-5.3-5.1-6-12.9
			C707.1,270.9,708.9,269.6,710.5,270.4z"/>
		<path class="st1" d="M635.3,270.5c9,20.6,25.9,14.8,21.2-6.3c-0.3-1.3-2.1-1.6-2.7-0.4c-4.2,7.5-7.9,8.4-17.2,5.3
			C635.7,269,635,269.8,635.3,270.5z"/>
		<path class="st1" d="M629.1,263.8c-1.3-5.7-2.1-10.2,3.8-12.5c6.9-1.4,11,0.9,14.1,4.1c1,1,0.2,2.7-1.2,2.6
			c-6.9-0.6-11.5,0.4-15.3,6C630.1,264.6,629.2,264.4,629.1,263.8z"/>
		<path class="st1" d="M605.8,232.1c-4-23.2,5.2-31.8,5.7-5.6c0,1.7,1.1,3.2,2.7,3.5c1.4,0.3,3,0,4.7-1.1
			c16.1-11.2,23.2-7.7,7.1,7.9c-0.7,0.7-1.6,1.3-2.5,1.6c-11.9,5-12.3,6.5-17.3-4.7C606.1,233.3,605.9,232.7,605.8,232.1z"/>
		<path class="st1" d="M619.8,203.3c2.3-0.8,5.7-1.5,10.1-2.2c2.2-0.4,4.3,1.1,4.7,3.3c0,0.1,0,0.1,0,0.2c1,7.1-7.1,12-13.1,8.2
			c-1.4-0.9-2.6-2-3.6-3.3C616.3,207.2,617.3,204.1,619.8,203.3z"/>
		<path class="st1" d="M607.9,173.7c6.1,0.6,11.5,0.4,16.9-1c1-0.3,2,0.8,1.5,1.8c-1.2,2.3-3.6,4.3-7.3,6.3c-1,0.6-2.2,0.7-3.3,0.5
			c-3.8-1-6.3-3.1-8.5-6.4C606.9,174.3,607.3,173.6,607.9,173.7z"/>
		<path class="st1" d="M684.2,238.1c-19.5,24.1,12.3,43.6,18.9,6.5c0.1-0.6-0.7-1.1-1.1-0.6c-14.5,14.9-18.1,12.7-16.3-5.3
			C685.8,237.9,684.7,237.4,684.2,238.1z"/>
		<path class="st1" d="M664.6,223.5c-18.8,5.1-21.5,10.6-4.2,16.7c1.2,0.4,2.4-0.8,1.8-2c-2.2-4.4-1.4-8.8,3.2-13.2
			C666.1,224.4,665.5,223.3,664.6,223.5z"/>
		<ellipse transform="matrix(0.8084 -0.5886 0.5886 0.8084 -3.8268 456.2602)" class="st1" cx="699" cy="234" rx="5" ry="6"/>
		<path class="st1" d="M647.3,186.6c2.8,0.4,5.5,0.9,5.5,0.9c4.1,2.4,5.6,4.8,5.1,7.2c-0.1,0.8,0.5,1.6,1.3,1.5
			c14.2-0.5,16.4,2.6,4.7,9.7c-1.8,1.1-3.9,1.6-6,1.3c-5.9-0.9-9.4-3.7-8-10.5c0.9-2.4-0.6-4.9-3.6-7.6
			C645,188.2,645.8,186.4,647.3,186.6z"/>
		<path class="st1" d="M659.7,178.7c10.4-3,15,0,12.6,9.8c-0.3,1.3-1.9,1.8-2.9,0.9c-3.6-3.4-7.1-5.6-10-7.1
			C657.8,181.6,658,179.2,659.7,178.7z"/>
		<path class="st1" d="M645.6,157.2c10.1,0,12.2,4.9-0.6,6.2c-1,0.1-2.1,0-3.1-0.5c-4.3-2-5.3-5.2-3.7-9.4c0.1-0.4,0.4-0.7,0.7-0.8
			l5.1-2.7c0.1-0.1,0.2,0.1,0.1,0.2c-1.3,2.1-1.3,4-0.4,5.8C644.2,156.7,644.9,157.2,645.6,157.2z"/>
		<path class="st1" d="M653,150.5c-0.7-1.4-1.5-2.5-2.7-3.4c-0.4-0.3-0.4-0.9,0.1-1.1l5.2-2.8c0.6-0.3,1.3,0,1.4,0.7
			c0.3,2.4,0,4.6-1.3,6.8C655,151.7,653.5,151.6,653,150.5z"/>
		<path class="st1" d="M677.8,155c-16.3-5.6,10.1-23.5,10.6-5.6c0,0.4,0.1,0.8,0.2,1.2c1.1,3.2,0.9,6.5-0.2,9.9
			c-6.7,12.6-22.8,9.2-10.2-3.7C678.7,156.2,678.5,155.3,677.8,155z"/>
		<path class="st1" d="M690.2,187.3c4-14.9,11.4-15.5,10.1-0.2c-0.1,1.5-1.1,2.8-2.4,3.4c-3.3,1.5-4.3,5-4,9.6
			c0.1,1.2,0.6,2.2,1.4,3.1c14.7,14.6,4.9,15.9-9.2,0.8c-3-3.8-1.2-9.1,3.5-15.4C689.8,188.2,690.1,187.8,690.2,187.3z"/>
		<path class="st1" d="M709.1,188.7c-1.9,2.8-2.8,7.3-3.1,13c-0.1,1.6,0.3,3.2,1.1,4.6c3.8,6.5,6.2,6,8.7-0.9
			c0.4-1.1,0.5-2.4,0.4-3.6c-0.7-5.5-1.3-9.6-2.4-12.5C713.1,187.2,710.4,186.8,709.1,188.7z"/>
		<path class="st1" d="M711.3,154.9c11.1-11.7,13.8-10.8,8.9,1.5c-0.2,0.4-0.4,0.8-0.7,1.2c-1.6,2.3-1.7,5.3-0.8,8.8
			c0.1,0.4,0.3,0.9,0.5,1.3c4.9,8.8,2.6,10.1-5.9,4.9c-1.4-0.9-3.1-1.2-4.7-0.9c-8.2,1.1-7-4.7,2.4-16.4
			C711.1,155.1,711.2,155,711.3,154.9z"/>
		<path class="st1" d="M734.8,155c-1.3,2.2-1.6,5.8-1.7,9.6c0,0.3,0,0.6,0.1,0.9c1.5,8.4,3.7,8.4,6.7-1.7c0.1-0.2,0.1-0.5,0.2-0.7
			c0.6-3.5,0.3-6.2-0.7-8C738.2,153.4,735.8,153.3,734.8,155z"/>
		<ellipse transform="matrix(0.2514 -0.9679 0.9679 0.2514 413.79 803.0076)" class="st1" cx="726" cy="134" rx="5" ry="4"/>
		<path class="st1" d="M705,127.4c-0.5,15.9,8.7,12.4,9,6.4c0-0.6,0.2-1.2,0.5-1.8c1.8-3.6,3.9-6.8,6.8-8.6c1.6-1,2.8-2.6,3.2-4.5
			c1.2-4.9-1.4-6.9-9.2-4.6c-1.5,0.4-2.8,1.2-3.9,2.3c-3.4,3.5-5.7,6.9-6.4,10C705,126.9,705,127.2,705,127.4z"/>
		<path class="st1" d="M737.8,111.8c4.2-9,6.8-8.3,7.2,7c0,0.1,0,0.3,0,0.4c0.8,7.1,2.8,7,5.7,1.4c0.2-0.4,0.3-0.8,0.4-1.3
			c2.1-11.3,11.1-7.2,7.7,5.9c-0.5,1.8-1.5,3.4-3,4.5c-10.4,8.2-16.2,3.5-19.1-9.4C736.2,117.5,736.6,114.5,737.8,111.8z"/>
		<path class="st1" d="M754.6,89.5c-0.2,0.5,0.4,1,0.9,0.8c4.4-2.3,7.4-4.4,6.5-6.2c0.4-3.1,0.1-5-0.8-5.9c-0.5-0.5-1.2-0.5-1.8-0.1
			l-4.7,3.3c-0.4,0.3-0.5,0.8-0.2,1.2C755.9,84.5,755.5,86.9,754.6,89.5z"/>
		<path class="st1" d="M792.5,67.4c-7.5,5.8-3.5,9.4,4.3,4.8c0.2-0.1,0.3-0.2,0.5-0.2c4.2-1.1,7.2-3,9.3-5.4
			c0.3-0.3,0.5-0.7,0.6-1.2c1.4-7.2-3.9-11-4.2-4.5c0,0.7-0.5,1.3-1.1,1.5c-4.5,1.5-8.1,3-8.8,4.2C792.9,66.9,792.8,67.2,792.5,67.4
			z"/>
		<path class="st1" d="M763.6,280.4c-9.8,9.2-4.6,19.7,2.2,8.7c0.8-1.3,2.3-2.1,3.9-2c0.9,0.1,1.7,0.2,2.6,0.3
			c1.6,0.3,2.9,1.3,3.5,2.8c2.1,5,5.4,6.2,10.2,2.8c7.1-4.3,9.4-7.5-0.9-8c-1.4-0.1-2.7-0.5-3.9-1.4c-8.8-6.4-14.5-7.9-17-4.2
			C764.1,279.8,763.9,280.1,763.6,280.4z"/>
		<ellipse class="st1" cx="754.5" cy="266.6" rx="5" ry="5.9"/>
		<path class="st1" d="M799.8,268.3c-6,8.4-0.6,11.9,5.6,5.3c0.4-0.4,0.9-0.7,1.4-0.9c2.2-0.9,4.7-3.1,7.2-6.7
			c6.5-6.6,4.5-8.4-5.8-5.4c-0.1,0-0.2,0.1-0.3,0.1c-3.9,1.7-6.6,4-7.8,6.9C800,267.9,799.9,268.1,799.8,268.3z"/>
		<path class="st1" d="M774.8,248.5c-0.6,0.4-1.1,0.9-1.4,1.5c-4.5,7.1,0.5,13.3,7.7,7.1c4.1-2.9,6.2-5.7,6.7-8.6
			c0.5-2.8-2.3-5.2-5-4.2C780,245.3,777.4,246.8,774.8,248.5z"/>
		<path class="st1" d="M747.7,232c-1.5,2.2-3,3.9-4.7,4.6c-0.7,0.3-1.3,0.8-1.6,1.6c-3,7,1.6,8,6.4,5.5c0.6-0.3,1.2-0.9,1.5-1.5
			c0.9-1.8,2-3.2,3.4-4.3c0.9-0.7,1.6-1.7,1.8-2.8C756.3,227.9,749.5,225.1,747.7,232"/>
		
			<ellipse transform="matrix(0.9767 -0.2145 0.2145 0.9767 -27.4888 166.8832)" class="st1" cx="755.2" cy="210.1" rx="6.2" ry="2.3"/>
		<path class="st1" d="M843.7,257.7c-1.4-7.1,4.6-13.1,7.7-5.5c0.1,0.2,0.2,0.4,0.2,0.7l1.1,4.7c0.2,1,0.3,2.1,0.2,3.2
			c-0.9,6.9-3.7,6.4-8.3-0.8C844.1,259.2,843.8,258.5,843.7,257.7z"/>
		<path class="st1" d="M813,236c-6.6,3.6-5.6,8.9,0.8,6.5c0.8-0.3,1.7-0.4,2.5-0.2l2.2,0.4c0.9,0.2,1.8,0.7,2.5,1.4
			c6.9,7.2,8.9,6.1,6.5-2.6C823.5,228.5,826.2,226.7,813,236z"/>
		<path class="st1" d="M785.6,228.6c8,1.4,12.4-1.7,13.9-8.3c0.4-1.8-1-3.4-2.8-3.5c-7.6-0.2-12.1,2.7-13.3,8.9
			C783.2,227,784.2,228.3,785.6,228.6z"/>
		<path class="st1" d="M790,204c15.8-4.2,24.3,7.2,4.7,6.1c-0.6,0-1.1,0.1-1.6,0.4c-8.8,5.5-14.9,7.8-18,6.3c-0.7-0.4-1.1-1.2-0.9-2
			C775.2,209.5,781.1,206.1,790,204z"/>
		<path class="st1" d="M770,179.8c7.7,0,6.8,9.8,0.5,13.3c-1.3,0.8-3.3,0.1-3.5-1.4c-0.3-3.2-0.3-6.6,0.2-10
			C767.5,180.5,768.8,179.8,770,179.8z"/>
		<path class="st1" d="M986.8,238.7c8.6-1.5,11.5,0.9,10,6.2c-0.4,1.3-1.7,2-3,1.7c-4-0.8-6.6-2.6-8.2-5.3
			C984.9,240.4,985.5,238.9,986.8,238.7z"/>
		<path class="st1" d="M978.5,223.6c11,3.8,14.4,0.1,10.1-11.3c-0.5-1.4-2.5-1.5-3.1-0.2c-1.5,3.1-4.1,5.5-7.5,7.6
			C976.5,220.6,976.7,223,978.5,223.6z"/>
		<path class="st1" d="M940.9,216.6c6.3-6.6,11-6.4,14.4,0c1.1,2,0.2,4.5-1.8,5.5c-3.8,1.8-7.6,1.8-11.3,0.3
			C939.8,221.4,939.2,218.4,940.9,216.6z"/>
		
			<ellipse transform="matrix(0.1849 -0.9828 0.9828 0.1849 523.5972 1106.5033)" class="st1" cx="928.8" cy="237.6" rx="3.5" ry="2.9"/>
		<path class="st1" d="M951.2,196.1c1,6,4.6,9.3,10.7,9.8c1.1,0.1,2-0.9,1.8-2c-1-6.1-4.7-9.2-10.7-9.9
			C952,194,951.1,195,951.2,196.1z"/>
		<path class="st1" d="M898.2,248.1c7.9,0.1,12.1-3.3,12.7-10.2c0.1-1.6-1.3-2.9-2.9-2.6c-7.7,1.2-11.7,4.7-12.1,10.3
			C895.9,247,896.9,248.1,898.2,248.1z"/>
		<path class="st1" d="M858.7,236.2c7.2,0.9,10.8,4.9,11.9,11.2c0.3,1.4-0.9,2.7-2.4,2.6c-8.1-0.6-11.9-4.7-11.5-12.2
			C856.9,236.8,857.8,236,858.7,236.2z"/>
		<path class="st1" d="M889.5,227.5c-8.2,13-3.4,18.6,4.6,6.8c0.5-0.8,1.4-1.3,2.4-1.4c6-0.7,10.4-3.4,12-9.9
			c0.4-1.7-0.8-3.3-2.6-3.5C899.4,218.9,894.3,221.9,889.5,227.5z"/>
		<path class="st1" d="M863.1,218c0.5,5.8,4.2,9.8,13,10.8c1.6,0.2,2.9-1.2,2.6-2.8c-1.2-7.1-5.8-10.5-13.8-10.2
			C863.8,215.9,863,216.9,863.1,218z"/>
		<path class="st1" d="M908.5,210.7c-0.7-18,6.8-18.9,6.5-3.4c0,0.4,0.1,0.9,0.2,1.3c1,2.4,2.5,3.7,4.3,3.7c0.8,0,1.5-0.4,2-1
			c8.5-10.1,14.5-1,3,5.9c-0.4,0.2-0.8,0.4-1.3,0.5c-5.7,0.9-10.4-0.7-14.1-5.2C908.8,212,908.5,211.4,908.5,210.7z"/>
		<path class="st1" d="M833,219.4c-1.4-1.1,8.1-5.3,11.9-4.5c0.1,0,0.2,0.1,0.3,0.1c2.4,0.9,3.4,3,3.7,5.8c0.3,3-2.1,5.4-5.1,5.3
			C839.8,225.9,836.2,223.7,833,219.4z"/>
		<path class="st1" d="M815.9,200.3c-1.3-7.6-1.1-8.6,9.2-4.7c0.6,0.2,1.3,0.3,1.9,0.3l9.5-0.5c19.4-0.1,16.2,3.2-0.2,8.4
			c-0.2,0.1-0.5,0.1-0.7,0.2l-4.4,0.6c-1.4,0.2-2.5,1.1-3.2,2.3c-3.1,6-7.2,2.7-11.8-5.3C816.1,201.2,816,200.8,815.9,200.3z"/>
		<path class="st1" d="M774.7,148.2c6.1-6.1,11.9-6.9,11.5-0.5c-0.1,0.8,0.3,1.6,0.9,2.1c2.8,2.4,2.2,6-3.1,10.3
			c-0.3,0.3-0.6,0.6-0.7,1c-3.2,9.5-23.4,1.3-4.3-4.1c1-3,0-5.3-3.7-6.5C774.2,150.2,773.9,149,774.7,148.2z"/>
		<path class="st1" d="M835.3,188.5c9.5,3.2,16.4,1.9,20.4-6c0.8-1.6-0.4-3.6-2.2-3.9c-9.5-1.7-15.7,0.2-19.6,5.8
			C833,185.9,833.7,188,835.3,188.5z"/>
		<path class="st1" d="M822.8,178.7c6.6-2.9,7.3-6.9,5.2-12.1c-0.7-1.7-2.9-2.3-4.4-1c-3.1,2.7-4.6,6.1-4.5,10.7
			C819.2,178.2,821.1,179.4,822.8,178.7z"/>
		<path class="st1" d="M803.3,162.8c14.2-11.5,15.5-9,7.6,3.8c-0.6,0.9-0.8,2.1-0.6,3.2c1.9,11-1.4,12.2-7.7,7.7
			c-0.4-0.3-0.8-0.5-1.3-0.7c-8.8-3.2-8.6-7.7,1.3-13.6C802.9,163.1,803.1,162.9,803.3,162.8z"/>
		
			<ellipse transform="matrix(0.5963 -0.8028 0.8028 0.5963 213.9439 718.6917)" class="st1" cx="821.5" cy="146.6" rx="4.2" ry="3"/>
		<path class="st1" d="M808.8,145.1c6.7-0.6,11.6-5.3,14.5-14.3c0.5-1.5-0.7-3.1-2.3-3.1c-9.8,0-15.5,4.1-16,13.6
			C804.8,143.5,806.6,145.3,808.8,145.1z"/>
		<path class="st1" d="M775.6,94.8c-3.8,5.3-6,11.1-5.3,17.9c0.2,1.5,2,2.2,3.1,1.2c2.9-2.6,5.4-6.3,7.5-11.8c0.6-3-0.2-5.5-2.2-7.5
			C777.9,93.6,776.4,93.7,775.6,94.8z"/>
		<path class="st1" d="M774.9,117.2c2.4-3.3,4.6-5.4,6.6-6.5c0.9-0.5,1.6-1.5,1.8-2.5c2.3-10.3,5.8-3.6,4.7,5.9
			c-0.1,0.7-0.4,1.3-0.8,1.8c-2.1,2.5-5.7,3.8-10.8,4C774.9,120.1,774,118.4,774.9,117.2z"/>
		<path class="st1" d="M800.4,98.5c12.1,17.3,15.6,18.5,11.2-1.4c-0.1-0.4-0.1-0.8-0.1-1.2c-0.2-12-3.5-12.3-10.7-4.3
			C799.1,93.6,798.9,96.4,800.4,98.5z"/>
		<path class="st1" d="M834.4,132.6c6-7.2,11.8-4.5,6,4.2c-0.8,1.2-1,2.6-0.6,4c0.7,2.3,2,3.1,3.7,2.6c1.4-0.4,2.5-1.7,2.8-3.1
			c2.1-10.1,13.2-3.9,3.7,7.6c-1.2,1.5-3,2.5-4.9,2.7c-8.5,1.2-12.7-3.1-12.6-12.8C832.5,135.9,833.2,134,834.4,132.6z"/>
		<path class="st1" d="M860,143c9,0,13.8,3.7,15.4,10.2c0.6,2.5-1.5,4.8-4,4.6c-8.1-0.9-13-4.3-14.7-10.3
			C856,145.3,857.7,143,860,143z"/>
		<path class="st1" d="M826.2,90.3c-12.3-6.3-8.2-12.2,5.7-4.5c1.4,0.8,2.3,2.1,2.6,3.6c0.8,4.3,0.6,7-0.5,8.3
			c-8.5,11.8-15,6.8-6-1.7C830.2,93.7,829.8,91.8,826.2,90.3z"/>
		<path class="st1" d="M915.1,161.8c4.4,4.3,4.6,8.3,0.5,11.8c-1.7,1.4-4.3,0.6-4.8-1.6c-0.9-3.8-0.7-7,0.6-9.6
			C912,161,913.9,160.7,915.1,161.8z"/>
		<path class="st1" d="M888,152c-4.2-8.8-1.8-10.5,9-3c6.3,4.8,6.3,8.5,0,11c-4,3.1-7.1,4.4-8.7,3.1
			C886.8,161.9,886.6,158.4,888,152z"/>
		<path class="st1" d="M872.1,131.5c5.9,1.9,9.1,1.6,7.9-2.7c-1-3.6-3.9-6.3-7.5-7.4c-8.7-2.7-11.9-1.6-7.4,4.8
			C866.8,128.7,869.2,130.6,872.1,131.5z"/>
		<path class="st1" d="M879.5,109.4c3.9-0.1,5,1.9,4.5,5.1c-0.4,2.2-2.1,3.9-4.3,4.3c-5.3,1-7.6-0.5-6-5.1
			C874.6,111.3,876.9,109.5,879.5,109.4z"/>
		<path class="st1" d="M920.3,146.4c8.4-11.2,10.2-6.2,11.5,4c8.6,20.1,2.9,22.8-5.9,8.6c-2.3-2.3-4.2-4.3-5.6-6
			C918.9,151.1,918.9,148.4,920.3,146.4z"/>
		<path class="st1" d="M829.5,56.7c-9.4,4.5-11.1,3.3-0.5-6.7c2-3.1,5.3-3.5,9.6-1.7c2.5,1.1,4.3,3.5,4.4,6.2
			c0,4.1-3.7,4.5-10.5,2.1C831.5,56.2,830.4,56.3,829.5,56.7z"/>
		<path class="st1" d="M838,67c15.9-2.9,17,4.7,3.9,8.7c-0.6,0.2-1.2,0.3-1.8,0.3C827,76.7,826.3,69,838,67z"/>
		<path class="st1" d="M855.3,84.1c5.9-7.6,8.7-7,10.2,0.3c0.3,1.4,0.9,2.8,1.9,3.9c2.7,3,0.2,5.2-5.5,6.9c-2.2,0.7-4.5,0.1-6.1-1.5
			c-0.1-0.1-0.1-0.1-0.2-0.2C853.1,91,853.1,86.9,855.3,84.1z"/>
		<path class="st1" d="M877,78c2.9-1.4,4.4-0.1,4.9,3.2c0.5,3.2-1.3,6.4-4.3,7.6c-3,1.1-4.3-0.8-4-5.6C873.8,81,875,79,877,78z"/>
		<path class="st1" d="M863.7,56.5c8.2,6.3,10.7,5.5,7.6-2.5c-0.8-1.9-2.2-3.6-4-4.5c-8.8-4.7-10.7-3-4.8,5.8
			C862.8,55.8,863.2,56.2,863.7,56.5z"/>
		<ellipse transform="matrix(0.8299 -0.558 0.558 0.8299 98.5068 516.0754)" class="st1" cx="895.5" cy="96.5" rx="3.5" ry="4.5"/>
		<path class="st1" d="M896.9,132.6c7.8,4.7,14.6,0.6,10.6-5c-1.1-1.6-2.8-2.7-4.6-3.3c-10.4-3.4-13.6-1.6-8.4,6
			C895.2,131.2,896,132,896.9,132.6z"/>
		<path class="st1" d="M898.5,109.2c7.6-0.8,21.1,10,22.2,16.4c0.3,1.7-1,3.3-2.7,3.4c-7.7,0.4-19.4-9.5-21.6-16.5
			C895.9,110.9,896.9,109.4,898.5,109.2z"/>
		<path class="st1" d="M907.5,91.2c-3.6-12.3-1.5-13.2,10.5-4.2c0.9,0.6,1.9,1,3,0.9c9.5-0.3,8.5,0.9,6.4,8.5
			c-4.2,8-10.3,7.1-18.1-2C908.4,93.6,907.8,92.4,907.5,91.2z"/>
		<path class="st1" d="M886.7,62.5c4.8-9.4,8.9-11.8,11.8-2.1c0.3,0.9,1.1,1.6,2.1,1.5c6.1-0.1,9.1,0.7,7.7,2.6
			c-0.2,0.3-0.4,0.7-0.5,1.1c-1.1,6.4-2.6,7.6-4.4,3.6c-0.4-0.8-1.2-1.3-2-1.3h-2.2c-0.8,0-1.6,0.5-1.9,1.2c-3.9,9.3-7.4,5-10.8-3.7
			C886.2,64.6,886.3,63.4,886.7,62.5z"/>
		<path class="st1" d="M921.3,77.7c2.4,1.1,4.1,0.9,5-0.9c1.2-2.4-0.6-5.2-3.3-5.4c-4.6-0.3-5.8,1.1-3.8,4.4
			C919.7,76.6,920.4,77.3,921.3,77.7z"/>
		<path class="st1" d="M946.6,59.1c13.5-4,16.2-0.9,8.2,9.4c-2.4,3-5.8,5.1-9.6,5.6c-10.3,1.6-13.8-0.7-8.8-7.7
			C938.9,62.9,942.5,60.4,946.6,59.1z"/>
		<path class="st1" d="M941.1,90.5c10.9-14.2,21.3-7.7,7.7,6.1c-1.1,1.1-1.9,2.5-2.3,4.1c-1.5,5.6-9.9,7-6.9-6.8
			C939.8,92.6,940.4,91.5,941.1,90.5z"/>
		<path class="st1" d="M959.1,138.9c5.7,10.2,9,11.6,9.8,4.3c0.6-5.7-0.8-11.4-4.4-15.9c-4.6-5.9-7.9-3.3-6.8,7.5
			C957.9,136.3,958.3,137.7,959.1,138.9z"/>
		<path class="st1" d="M983.2,166.3c-0.1-0.2-0.3-0.3-0.4-0.5c-4.3-7.3,6.2-12.6,9.2-3.7C996.4,176.7,993.3,177.8,983.2,166.3z"/>
		<path class="st1" d="M1006.9,159.1c-1.3-9.1,1.6-10.3,4.9-1.7c0.2,0.4,0.4,0.8,0.6,1.1l4.5,5.4c0.1,0.1,0.1,0.2,0.2,0.3
			c7.3,10.3,0.7,12.5-5,3c0-0.1-0.1-0.1-0.1-0.2l-4.4-6.2C1007.2,160.3,1006.9,159.7,1006.9,159.1z"/>
		<path class="st1" d="M989.7,143c1.4,4.8,3.1,6,5.1,3.7c2.8-3.1,2.7-7.9,0.1-11.2c-1.9-2.4-3.6-2-4.9,1.1
			C989.2,138.6,989.1,140.9,989.7,143z"/>
		<path class="st1" d="M1032.8,146.9c8.2,5.3,10.3,4,6.1-4c-1-1.9-2.6-3.5-4.5-4.5c-8.4-4.4-10.9-3.5-6.4,3.6
			C1029.2,144,1030.9,145.6,1032.8,146.9z"/>
		<path class="st1" d="M974.9,121.9c5.5,5.1,8.2,5.2,8.2,0.5c0-4.9-2.8-9.4-7-11.9c-4.6-2.8-5.9-0.3-3.9,7
			C972.7,119.1,973.6,120.7,974.9,121.9z"/>
		<path class="st1" d="M998,120c6.5,7.5,11.5,3.5,7-4C1000.5,107.5,991.5,111.5,998,120z"/>
		<ellipse class="st1" cx="1021.5" cy="112" rx="3.5" ry="4"/>
		<path class="st1" d="M969.2,72.6c5.3-10.7,11.8-10,9.1,4.1c-0.2,0.9-0.5,1.9-0.9,2.7c-4.6,8.7-12.5,5.6-8.5-5.9
			C968.9,73.2,969.1,72.9,969.2,72.6z"/>
		<path class="st1" d="M993.3,88.3c6.6,3.5,9,2,7.1-4.4c-0.8-2.6-2.7-4.7-5.2-5.7c-6-2.4-7.8-0.3-5.3,6.3
			C990.6,86.1,991.8,87.5,993.3,88.3z"/>
		<path class="st1" d="M1016.1,79.5c7.9,5.3,10.7,4,8.2-3.9c-0.9-3-3.1-5.6-6-6.9c-5-2.2-8.2,1-6.3,6
			C1012.8,76.6,1014.3,78.3,1016.1,79.5z"/>
		<path class="st1" d="M998.6,58.1c0-1.2,0-3-0.1-5.7c-0.1-3.1-3.5-5.1-6.2-3.5c0,0-0.1,0-0.1,0.1c-3.9,2.5-4,8-0.2,10.5
			c0.7,0.5,1.6,0.9,2.5,1.3C996.5,61.4,998.6,60.1,998.6,58.1z"/>
		<path class="st1" d="M1011.8,36.1l6.6,0.4c0.6,0,1.1-0.4,1-1c-0.1-10.8,6.5-19.6,15.9-28.8c0,0,0-0.1,0-0.1
			c-14,6.7-22.7,15.7-24.2,28.6C1011,35.6,1011.4,36,1011.8,36.1z"/>
		<path class="st1" d="M1078.5,70.4c0.6,1.1,1.6,1.8,3,2.3c0.9,0.3,1.8-0.1,2.3-0.8c3.2-5.2,8-11.5,14.1-18.6c0,0,0-0.1-0.1-0.1
			c-6.4,3.4-12.7,8.4-18.9,15C1078.2,68.8,1078.1,69.7,1078.5,70.4z"/>
		<circle class="st1" cx="1064.5" cy="81.5" r="3.5"/>
		<path class="st1" d="M1072.8,104.9c3.9,4.1,5.4,2.5,4.5-4.9c-0.3-2.5-1.7-4.8-3.9-6.1c-3.4-2.1-4.5-0.3-3.8,4.4
			C1070,100.7,1071.1,103.1,1072.8,104.9z"/>
		<path class="st1" d="M1044.1,96c4.7,0.9,9.4,3.5,13.9,7.9c1.9,1.9,2.8,4.5,2.4,7.1l-0.5,3.9c2.2,1.3,3.7,3.1,4.3,5.5
			c0.1,0.5,0.2,1,0.2,1.4v8.1c0,0.1-0.2,0.2-0.2,0c-1.6-4.4-3.4-8-5.5-10.3c-0.4-0.5-1.1-0.7-1.8-0.6c-1.1,0.2-2.3,0.3-3.4,0.2
			c-1.5-0.1-2.8-1.2-3.1-2.7c-1.6-7.8-3.7-14.7-6.5-20.6C1044,96.1,1044.1,96,1044.1,96z"/>
	</g>
</g>
<g id="Layer_2" class="st2">
</g>
</svg>
