<?xml version="1.0" encoding="utf-8"?>
<!-- Generator: Adobe Illustrator 26.3.1, SVG Export Plug-In . SVG Version: 6.00 Build 0)  -->
<svg version="1.1" id="Layer_1" xmlns="http://www.w3.org/2000/svg" xmlns:xlink="http://www.w3.org/1999/xlink" x="0px" y="0px"
	 viewBox="0 0 21.4 19" style="enable-background:new 0 0 21.4 19;" xml:space="preserve">
<style type="text/css">
	.st0{fill:#989899;}
</style>
<path class="st0" d="M21.4,9.5c0,0.7-0.6,1.2-1.2,1.2H19l0,5.9c0,0.1,0,0.2,0,0.3v0.6c0,0.8-0.7,1.5-1.5,1.5h-0.6c0,0-0.1,0-0.1,0
	c-0.1,0-0.1,0-0.2,0h-1.2h-0.9c-0.8,0-1.5-0.7-1.5-1.5v-0.9v-2.4c0-0.7-0.5-1.2-1.2-1.2H9.5c-0.7,0-1.2,0.5-1.2,1.2v2.4v0.9
	c0,0.8-0.7,1.5-1.5,1.5H5.9H4.8c-0.1,0-0.1,0-0.2,0c0,0-0.1,0-0.1,0H3.9c-0.8,0-1.5-0.7-1.5-1.5v-4.2c0,0,0-0.1,0-0.1v-2.6H1.2
	C0.5,10.7,0,10.2,0,9.5c0-0.3,0.1-0.6,0.4-0.9l9.5-8.3C10.1,0,10.4,0,10.7,0s0.6,0.1,0.8,0.3L21,8.6C21.3,8.9,21.4,9.1,21.4,9.5z"/>
</svg>
