<?xml version="1.0" encoding="utf-8"?>
<!-- Generator: Adobe Illustrator 26.3.1, SVG Export Plug-In . SVG Version: 6.00 Build 0)  -->
<svg version="1.1" id="Layer_1" xmlns="http://www.w3.org/2000/svg" xmlns:xlink="http://www.w3.org/1999/xlink" x="0px" y="0px"
	 viewBox="0 0 19 19" style="enable-background:new 0 0 19 19;" xml:space="preserve">
<style type="text/css">
	.st0{fill:#989899;}
	.st1{display:none;fill:none;}
</style>
<path class="st0" d="M16.3,0H2.6C1.2,0,0,1.2,0,2.6v13.8C0,17.8,1.2,19,2.6,19h13.8c1.4,0,2.6-1.2,2.6-2.7V2.6C19,1.2,17.8,0,16.3,0
	z M16.3,13l-0.6,2.7c-0.1,0.4-0.4,0.6-0.8,0.6C8.1,16.3,2.6,10.8,2.6,4c0-0.4,0.3-0.7,0.6-0.8L6,2.7c0.4-0.1,0.8,0.1,1,0.5l1.2,2.9
	c0.1,0.3,0,0.7-0.2,1L6.5,8.2c0.9,1.9,2.4,3.4,4.3,4.3L12,11c0.2-0.3,0.6-0.4,1-0.2l2.9,1.2C16.2,12.2,16.4,12.6,16.3,13z"/>
<path class="st1" d="M15.9,12L13,10.8c-0.4-0.2-0.8-0.1-1,0.2l-1.2,1.5c-1.9-0.9-3.4-2.4-4.3-4.3L8,7.1c0.2-0.3,0.3-0.7,0.2-1L7,3.2
	C6.8,2.8,6.4,2.6,6,2.7L3.2,3.2C2.9,3.3,2.6,3.6,2.6,4c0,6.8,5.5,12.3,12.3,12.3c0.4,0,0.7-0.2,0.8-0.6l0.6-2.7
	C16.4,12.6,16.2,12.2,15.9,12z"/>
</svg>
