<?xml version="1.0" encoding="utf-8"?>
<!-- Generator: Adobe Illustrator 26.3.1, SVG Export Plug-In . SVG Version: 6.00 Build 0)  -->
<svg version="1.1" id="Layer_1" xmlns="http://www.w3.org/2000/svg" xmlns:xlink="http://www.w3.org/1999/xlink" x="0px" y="0px"
	 viewBox="0 0 19 19" style="enable-background:new 0 0 19 19;" xml:space="preserve">
<style type="text/css">
	.st0{fill:#989899;}
	.st1{fill:#FFFFFF;}
</style>
<g>
	<path class="st0" d="M16.4,19H2.6C1.2,19,0,17.8,0,16.4V2.6C0,1.2,1.2,0,2.6,0h13.7C17.8,0,19,1.2,19,2.6v13.7
		C19,17.8,17.8,19,16.4,19z"/>
	<path class="st1" d="M16.3,13l-0.6,2.7c-0.1,0.4-0.4,0.6-0.8,0.6c-6.8,0-12.3-5.5-12.3-12.3c0-0.4,0.3-0.7,0.6-0.8L6,2.7
		c0.4-0.1,0.8,0.1,1,0.5l1.2,2.9c0.1,0.3,0,0.7-0.2,1L6.5,8.2c0.9,1.9,2.4,3.4,4.3,4.3L12,11c0.2-0.3,0.6-0.4,1-0.2l2.9,1.2
		C16.2,12.2,16.4,12.6,16.3,13z"/>
</g>
</svg>
