<?xml version="1.0" encoding="utf-8"?>
<!-- Generator: Adobe Illustrator 26.3.1, SVG Export Plug-In . SVG Version: 6.00 Build 0)  -->
<svg version="1.1" id="Layer_1" xmlns="http://www.w3.org/2000/svg" xmlns:xlink="http://www.w3.org/1999/xlink" x="0px" y="0px"
	 viewBox="0 0 19 19" style="enable-background:new 0 0 19 19;" xml:space="preserve">
<style type="text/css">
	.st0{fill:#989899;}
</style>
<path class="st0" d="M9.5,3.9c-3.1,0-5.6,2.5-5.6,5.6c0,1.1,0.3,2.1,0.9,3l0.1,0.2l-0.6,2.1l2.1-0.6l0.2,0.1C7.5,14.8,8.5,15,9.5,15
	h0c3.1,0,5.7-2.5,5.7-5.6c0-1.5-0.6-2.9-1.7-4C12.4,4.4,11,3.9,9.5,3.9L9.5,3.9z M12.8,11.8c-0.1,0.4-0.8,0.8-1.1,0.8
	c-0.5,0.1-0.9,0-2-0.4C8,11.5,6.9,9.8,6.8,9.7C6.7,9.6,6.1,8.8,6.1,7.9s0.4-1.2,0.6-1.4C6.8,6.4,7,6.3,7.1,6.3c0.1,0,0.2,0,0.3,0
	c0.1,0,0.2,0,0.4,0.3C8,7,8.3,7.8,8.3,7.9c0,0.1,0.1,0.2,0,0.3C8,8.8,7.7,8.8,7.9,9.1c0.6,1.1,1.3,1.5,2.3,2c0.2,0.1,0.3,0.1,0.4,0
	c0.1-0.1,0.4-0.5,0.5-0.7c0.1-0.2,0.2-0.1,0.4-0.1c0.2,0.1,1,0.5,1.1,0.5c0.2,0.1,0.3,0.1,0.3,0.2C12.9,11.1,12.9,11.5,12.8,11.8z
	 M17,0H2C0.9,0,0,0.9,0,2V17c0,1.1,0.9,2,2,2H17c1.1,0,2-0.9,2-2V2C19,0.9,18.1,0,17,0z M9.5,16.2c-1.1,0-2.2-0.3-3.2-0.8l-3.6,0.9
	l1-3.5c-0.6-1-0.9-2.2-0.9-3.4c0-3.7,3-6.7,6.7-6.7c1.8,0,3.5,0.7,4.8,2c1.3,1.3,2,3,2,4.8C16.3,13.2,13.2,16.2,9.5,16.2L9.5,16.2z"
	/>
</svg>
